Nobel-Condensed_Light.ufo
<glyph name="exclam" format="1">
  <advance width="167"/>
  <unicode hex="0021"/>
  <outline>
    <contour>
      <point x="101" y="277" type="line"/>
      <point x="91" y="116" type="line"/>
      <point x="76" y="116" type="line"/>
      <point x="66" y="277" type="line"/>
      <point x="66" y="730" type="line"/>
      <point x="101" y="730" type="line"/>
    </contour>
    <contour>
      <point x="102" y="0" type="line"/>
      <point x="65" y="0" type="line"/>
      <point x="65" y="70" type="line"/>
      <point x="102" y="70" type="line"/>
    </contour>
  </outline>
</glyph>
<glyph name="quotedbl" format="1">
  <advance width="220"/>
  <unicode hex="0022"/>
  <outline>
    <contour>
      <point x="176" y="658" type="line"/>
      <point x="166" y="568" type="line"/>
      <point x="152" y="568" type="line"/>
      <point x="142" y="658" type="line"/>
      <point x="142" y="730" type="line"/>
      <point x="176" y="730" type="line"/>
    </contour>
    <contour>
      <point x="78" y="658" type="line"/>
      <point x="68" y="568" type="line"/>
      <point x="54" y="568" type="line"/>
      <point x="44" y="658" type="line"/>
      <point x="44" y="730" type="line"/>
      <point x="78" y="730" type="line"/>
    </contour>
  </outline>
</glyph>
<glyph name="numbersign" format="1">
  <advance width="514"/>
  <unicode hex="0023"/>
  <outline>
    <contour>
      <point x="470" y="227" type="line"/>
      <point x="357" y="227" type="line"/>
      <point x="337" y="0" type="line"/>
      <point x="306" y="0" type="line"/>
      <point x="326" y="227" type="line"/>
      <point x="164" y="227" type="line"/>
      <point x="144" y="0" type="line"/>
      <point x="113" y="0" type="line"/>
      <point x="133" y="227" type="line"/>
      <point x="34" y="227" type="line"/>
      <point x="34" y="255" type="line"/>
      <point x="135" y="255" type="line"/>
      <point x="154" y="474" type="line"/>
      <point x="44" y="474" type="line"/>
      <point x="44" y="502" type="line"/>
      <point x="157" y="502" type="line"/>
      <point x="177" y="730" type="line"/>
      <point x="208" y="730" type="line"/>
      <point x="188" y="502" type="line"/>
      <point x="350" y="502" type="line"/>
      <point x="370" y="730" type="line"/>
      <point x="401" y="730" type="line"/>
      <point x="381" y="502" type="line"/>
      <point x="480" y="502" type="line"/>
      <point x="480" y="474" type="line"/>
      <point x="379" y="474" type="line"/>
      <point x="359" y="255" type="line"/>
      <point x="470" y="255" type="line"/>
    </contour>
    <contour>
      <point x="348" y="474" type="line"/>
      <point x="186" y="474" type="line"/>
      <point x="166" y="255" type="line"/>
      <point x="328" y="255" type="line"/>
    </contour>
  </outline>
</glyph>
<glyph name="dollar" format="1">
  <advance width="338"/>
  <unicode hex="0024"/>
  <outline>
    <contour>
      <point x="305" y="156" type="curve" smooth="yes"/>
      <point x="305" y="83"/>
      <point x="254" y="9"/>
      <point x="181" y="-1" type="curve"/>
      <point x="181" y="-71" type="line"/>
      <point x="146" y="-71" type="line"/>
      <point x="146" y="-1" type="line"/>
      <point x="97" y="4"/>
      <point x="64" y="30"/>
      <point x="29" y="76" type="curve"/>
      <point x="54" y="101" type="line"/>
      <point x="86" y="55"/>
      <point x="118" y="30"/>
      <point x="166" y="30" type="curve" smooth="yes"/>
      <point x="228" y="30"/>
      <point x="269" y="93"/>
      <point x="269" y="154" type="curve" smooth="yes"/>
      <point x="269" y="212"/>
      <point x="248" y="262"/>
      <point x="172" y="350" type="curve" smooth="yes"/>
      <point x="69" y="469"/>
      <point x="39" y="513"/>
      <point x="39" y="584" type="curve" smooth="yes"/>
      <point x="39" y="661"/>
      <point x="90" y="719"/>
      <point x="149" y="730" type="curve"/>
      <point x="149" y="779" type="line"/>
      <point x="184" y="779" type="line"/>
      <point x="184" y="731" type="line"/>
      <point x="234" y="726"/>
      <point x="264" y="698"/>
      <point x="288" y="664" type="curve"/>
      <point x="263" y="640" type="line"/>
      <point x="238" y="675"/>
      <point x="211" y="700"/>
      <point x="170" y="700" type="curve" smooth="yes"/>
      <point x="116" y="700"/>
      <point x="75" y="651"/>
      <point x="75" y="586" type="curve" smooth="yes"/>
      <point x="75" y="536"/>
      <point x="96" y="494"/>
      <point x="172" y="405" type="curve" smooth="yes"/>
      <point x="273" y="286"/>
      <point x="305" y="235"/>
    </contour>
  </outline>
</glyph>
<glyph name="percent" format="1">
  <advance width="614"/>
  <unicode hex="0025"/>
  <outline>
    <contour>
      <point x="286" y="553" type="curve" smooth="yes"/>
      <point x="286" y="433"/>
      <point x="227" y="364"/>
      <point x="162" y="364" type="curve" smooth="yes"/>
      <point x="97" y="364"/>
      <point x="42" y="433"/>
      <point x="42" y="553" type="curve" smooth="yes"/>
      <point x="42" y="673"/>
      <point x="101" y="742"/>
      <point x="166" y="742" type="curve" smooth="yes"/>
      <point x="231" y="742"/>
      <point x="286" y="673"/>
    </contour>
    <contour>
      <point x="509" y="730" type="line"/>
      <point x="140" y="0" type="line"/>
      <point x="105" y="0" type="line"/>
      <point x="474" y="730" type="line"/>
    </contour>
    <contour>
      <point x="572" y="177" type="curve" smooth="yes"/>
      <point x="572" y="57"/>
      <point x="513" y="-12"/>
      <point x="448" y="-12" type="curve" smooth="yes"/>
      <point x="383" y="-12"/>
      <point x="328" y="57"/>
      <point x="328" y="177" type="curve" smooth="yes"/>
      <point x="328" y="297"/>
      <point x="387" y="366"/>
      <point x="452" y="366" type="curve" smooth="yes"/>
      <point x="517" y="366"/>
      <point x="572" y="297"/>
    </contour>
    <contour>
      <point x="251" y="553" type="curve" smooth="yes"/>
      <point x="251" y="659"/>
      <point x="210" y="712"/>
      <point x="164" y="712" type="curve" smooth="yes"/>
      <point x="118" y="712"/>
      <point x="77" y="659"/>
      <point x="77" y="553" type="curve" smooth="yes"/>
      <point x="77" y="447"/>
      <point x="118" y="394"/>
      <point x="164" y="394" type="curve" smooth="yes"/>
      <point x="210" y="394"/>
      <point x="251" y="447"/>
    </contour>
    <contour>
      <point x="537" y="177" type="curve" smooth="yes"/>
      <point x="537" y="283"/>
      <point x="496" y="336"/>
      <point x="450" y="336" type="curve" smooth="yes"/>
      <point x="404" y="336"/>
      <point x="363" y="283"/>
      <point x="363" y="177" type="curve" smooth="yes"/>
      <point x="363" y="71"/>
      <point x="404" y="18"/>
      <point x="450" y="18" type="curve" smooth="yes"/>
      <point x="496" y="18"/>
      <point x="537" y="71"/>
    </contour>
  </outline>
</glyph>
<glyph name="ampersand" format="1">
  <advance width="415"/>
  <unicode hex="0026"/>
  <outline>
    <contour>
      <point x="411" y="0" type="line"/>
      <point x="373" y="0" type="line"/>
      <point x="320" y="93" type="line"/>
      <point x="281" y="30"/>
      <point x="233" y="-12"/>
      <point x="170" y="-12" type="curve" smooth="yes"/>
      <point x="87" y="-12"/>
      <point x="34" y="62"/>
      <point x="34" y="158" type="curve" smooth="yes"/>
      <point x="34" y="244"/>
      <point x="84" y="314"/>
      <point x="147" y="395" type="curve"/>
      <point x="119" y="443" type="line" smooth="yes"/>
      <point x="85" y="501"/>
      <point x="66" y="556"/>
      <point x="66" y="603" type="curve" smooth="yes"/>
      <point x="66" y="676"/>
      <point x="104" y="742"/>
      <point x="170" y="742" type="curve" smooth="yes"/>
      <point x="238" y="742"/>
      <point x="273" y="674"/>
      <point x="273" y="607" type="curve" smooth="yes"/>
      <point x="273" y="527"/>
      <point x="232" y="456"/>
      <point x="185" y="395" type="curve"/>
      <point x="321" y="158" type="line"/>
      <point x="336" y="189"/>
      <point x="350" y="225"/>
      <point x="363" y="265" type="curve"/>
      <point x="381" y="224" type="line"/>
      <point x="368" y="189"/>
      <point x="354" y="156"/>
      <point x="339" y="126" type="curve"/>
    </contour>
    <contour>
      <point x="239" y="603" type="curve" smooth="yes"/>
      <point x="239" y="655"/>
      <point x="216" y="710"/>
      <point x="169" y="710" type="curve" smooth="yes"/>
      <point x="124" y="710"/>
      <point x="101" y="659"/>
      <point x="101" y="603" type="curve" smooth="yes"/>
      <point x="101" y="562"/>
      <point x="120" y="509"/>
      <point x="149" y="458" type="curve" smooth="yes"/>
      <point x="169" y="423" type="line"/>
      <point x="209" y="476"/>
      <point x="239" y="532"/>
    </contour>
    <contour>
      <point x="303" y="123" type="curve"/>
      <point x="163" y="366" type="line"/>
      <point x="106" y="292"/>
      <point x="70" y="232"/>
      <point x="70" y="160" type="curve" smooth="yes"/>
      <point x="70" y="82"/>
      <point x="112" y="20"/>
      <point x="172" y="20" type="curve" smooth="yes"/>
      <point x="224" y="20"/>
      <point x="266" y="58"/>
    </contour>
  </outline>
</glyph>
<glyph name="quotesingle" format="1">
  <advance width="122"/>
  <unicode hex="0027"/>
  <outline>
    <contour>
      <point x="78" y="658" type="line"/>
      <point x="68" y="568" type="line"/>
      <point x="54" y="568" type="line"/>
      <point x="44" y="658" type="line"/>
      <point x="44" y="730" type="line"/>
      <point x="78" y="730" type="line"/>
    </contour>
  </outline>
</glyph>
<glyph name="parenleft" format="1">
  <advance width="260"/>
  <unicode hex="0028"/>
  <outline>
    <contour>
      <point x="220" y="-195" type="line"/>
      <point x="108" y="-75"/>
      <point x="43" y="83"/>
      <point x="43" y="289" type="curve" smooth="yes"/>
      <point x="43" y="495"/>
      <point x="108" y="653"/>
      <point x="220" y="773" type="curve"/>
      <point x="220" y="745" type="line"/>
      <point x="131" y="628"/>
      <point x="78" y="481"/>
      <point x="78" y="289" type="curve" smooth="yes"/>
      <point x="78" y="97"/>
      <point x="131" y="-50"/>
      <point x="220" y="-167" type="curve"/>
    </contour>
  </outline>
</glyph>
<glyph name="parenright" format="1">
  <advance width="260"/>
  <unicode hex="0029"/>
  <outline>
    <contour>
      <point x="217" y="289" type="curve" smooth="yes"/>
      <point x="217" y="83"/>
      <point x="152" y="-75"/>
      <point x="40" y="-195" type="curve"/>
      <point x="40" y="-167" type="line"/>
      <point x="129" y="-50"/>
      <point x="182" y="97"/>
      <point x="182" y="289" type="curve" smooth="yes"/>
      <point x="182" y="481"/>
      <point x="129" y="628"/>
      <point x="40" y="745" type="curve"/>
      <point x="40" y="773" type="line"/>
      <point x="152" y="653"/>
      <point x="217" y="495"/>
    </contour>
  </outline>
</glyph>
<glyph name="asterisk" format="1">
  <advance width="340"/>
  <unicode hex="002A"/>
  <outline>
    <contour>
      <point x="307" y="620" type="line"/>
      <point x="191" y="584" type="line"/>
      <point x="264" y="487" type="line"/>
      <point x="240" y="470" type="line"/>
      <point x="170" y="569" type="line"/>
      <point x="100" y="470" type="line"/>
      <point x="76" y="487" type="line"/>
      <point x="149" y="584" type="line"/>
      <point x="33" y="620" type="line"/>
      <point x="44" y="648" type="line"/>
      <point x="158" y="609" type="line"/>
      <point x="154" y="730" type="line"/>
      <point x="186" y="730" type="line"/>
      <point x="182" y="609" type="line"/>
      <point x="296" y="648" type="line"/>
    </contour>
  </outline>
</glyph>
<glyph name="plus" format="1">
  <advance width="440"/>
  <unicode hex="002B"/>
  <outline>
    <contour>
      <point x="404" y="315" type="line"/>
      <point x="236" y="315" type="line"/>
      <point x="236" y="136" type="line"/>
      <point x="204" y="136" type="line"/>
      <point x="204" y="315" type="line"/>
      <point x="36" y="315" type="line"/>
      <point x="36" y="345" type="line"/>
      <point x="204" y="345" type="line"/>
      <point x="204" y="524" type="line"/>
      <point x="236" y="524" type="line"/>
      <point x="236" y="345" type="line"/>
      <point x="404" y="345" type="line"/>
    </contour>
  </outline>
</glyph>
<glyph name="hyphen" format="1">
  <advance width="190"/>
  <unicode hex="002D"/>
  <unicode hex="2010"/>
  <unicode hex="2011"/>
  <outline>
    <contour>
      <point x="161" y="207" type="line"/>
      <point x="29" y="207" type="line"/>
      <point x="29" y="245" type="line"/>
      <point x="161" y="245" type="line"/>
    </contour>
  </outline>
</glyph>
<glyph name="period" format="1">
  <advance width="122"/>
  <unicode hex="002E"/>
  <outline>
    <contour>
      <point x="79" y="0" type="line"/>
      <point x="43" y="0" type="line"/>
      <point x="43" y="70" type="line"/>
      <point x="79" y="70" type="line"/>
    </contour>
  </outline>
</glyph>
<glyph name="slash" format="1">
  <advance width="270"/>
  <unicode hex="002F"/>
  <outline>
    <contour>
      <point x="221" y="730" type="line"/>
      <point x="82" y="0" type="line"/>
      <point x="49" y="0" type="line"/>
      <point x="188" y="730" type="line"/>
    </contour>
  </outline>
</glyph>
<glyph name="zero" format="1">
  <advance width="408"/>
  <unicode hex="0030"/>
  <outline>
    <contour>
      <point x="373" y="365" type="curve" smooth="yes"/>
      <point x="373" y="157"/>
      <point x="325" y="-12"/>
      <point x="204" y="-12" type="curve" smooth="yes"/>
      <point x="83" y="-12"/>
      <point x="35" y="157"/>
      <point x="35" y="365" type="curve" smooth="yes"/>
      <point x="35" y="573"/>
      <point x="83" y="742"/>
      <point x="204" y="742" type="curve" smooth="yes"/>
      <point x="325" y="742"/>
      <point x="373" y="573"/>
    </contour>
    <contour>
      <point x="337" y="365" type="curve" smooth="yes"/>
      <point x="337" y="550"/>
      <point x="299" y="710"/>
      <point x="204" y="710" type="curve" smooth="yes"/>
      <point x="109" y="710"/>
      <point x="71" y="550"/>
      <point x="71" y="365" type="curve" smooth="yes"/>
      <point x="71" y="180"/>
      <point x="109" y="20"/>
      <point x="204" y="20" type="curve" smooth="yes"/>
      <point x="299" y="20"/>
      <point x="337" y="180"/>
    </contour>
  </outline>
</glyph>
<glyph name="one" format="1">
  <advance width="180"/>
  <unicode hex="0031"/>
  <outline>
    <contour>
      <point x="114" y="0" type="line"/>
      <point x="79" y="0" type="line"/>
      <point x="79" y="645" type="line"/>
      <point x="69" y="617"/>
      <point x="48" y="596"/>
      <point x="18" y="582" type="curve"/>
      <point x="18" y="616" type="line"/>
      <point x="49" y="630"/>
      <point x="79" y="682"/>
      <point x="86" y="730" type="curve"/>
      <point x="114" y="730" type="line"/>
    </contour>
  </outline>
</glyph>
<glyph name="two" format="1">
  <advance width="335"/>
  <unicode hex="0032"/>
  <outline>
    <contour>
      <point x="299" y="0" type="line"/>
      <point x="24" y="0" type="line"/>
      <point x="224" y="445" type="line" smooth="yes"/>
      <point x="243" y="487"/>
      <point x="262" y="538"/>
      <point x="262" y="597" type="curve" smooth="yes"/>
      <point x="262" y="644"/>
      <point x="232" y="710"/>
      <point x="165" y="710" type="curve" smooth="yes"/>
      <point x="103" y="710"/>
      <point x="65" y="655"/>
      <point x="65" y="599" type="curve" smooth="yes"/>
      <point x="65" y="577" type="line"/>
      <point x="30" y="577" type="line"/>
      <point x="30" y="596" type="line" smooth="yes"/>
      <point x="30" y="667"/>
      <point x="75" y="742"/>
      <point x="165" y="742" type="curve" smooth="yes"/>
      <point x="263" y="742"/>
      <point x="298" y="659"/>
      <point x="298" y="599" type="curve" smooth="yes"/>
      <point x="298" y="552"/>
      <point x="288" y="505"/>
      <point x="267" y="458" type="curve" smooth="yes"/>
      <point x="76" y="33" type="line"/>
      <point x="299" y="33" type="line"/>
    </contour>
  </outline>
</glyph>
<glyph name="three" format="1">
  <advance width="335"/>
  <unicode hex="0033"/>
  <outline>
    <contour>
      <point x="304" y="186" type="curve" smooth="yes"/>
      <point x="304" y="63"/>
      <point x="230" y="-7"/>
      <point x="147" y="-7" type="curve" smooth="yes"/>
      <point x="97" y="-7"/>
      <point x="54" y="15"/>
      <point x="12" y="58" type="curve"/>
      <point x="35" y="86" type="line"/>
      <point x="72" y="47"/>
      <point x="108" y="25"/>
      <point x="150" y="25" type="curve" smooth="yes"/>
      <point x="214" y="25"/>
      <point x="268" y="81"/>
      <point x="268" y="184" type="curve" smooth="yes"/>
      <point x="268" y="273"/>
      <point x="231" y="368"/>
      <point x="110" y="368" type="curve" smooth="yes"/>
      <point x="104" y="368" type="line"/>
      <point x="104" y="399" type="line"/>
      <point x="114" y="399" type="line" smooth="yes"/>
      <point x="204" y="399"/>
      <point x="249" y="474"/>
      <point x="249" y="569" type="curve" smooth="yes"/>
      <point x="249" y="656"/>
      <point x="202" y="710"/>
      <point x="150" y="710" type="curve" smooth="yes"/>
      <point x="103" y="710"/>
      <point x="70" y="670"/>
      <point x="51" y="619" type="curve"/>
      <point x="20" y="633" type="line"/>
      <point x="44" y="698"/>
      <point x="92" y="742"/>
      <point x="152" y="742" type="curve" smooth="yes"/>
      <point x="220" y="742"/>
      <point x="285" y="675"/>
      <point x="285" y="571" type="curve" smooth="yes"/>
      <point x="285" y="477"/>
      <point x="246" y="416"/>
      <point x="176" y="384" type="curve"/>
      <point x="260" y="358"/>
      <point x="304" y="291"/>
    </contour>
  </outline>
</glyph>
<glyph name="four" format="1">
  <advance width="350"/>
  <unicode hex="0034"/>
  <outline>
    <contour>
      <point x="327" y="202" type="line"/>
      <point x="265" y="202" type="line"/>
      <point x="265" y="2" type="line"/>
      <point x="232" y="2" type="line"/>
      <point x="232" y="202" type="line"/>
      <point x="12" y="202" type="line"/>
      <point x="12" y="223" type="line"/>
      <point x="243" y="730" type="line"/>
      <point x="265" y="730" type="line"/>
      <point x="265" y="231" type="line"/>
      <point x="327" y="231" type="line"/>
    </contour>
    <contour>
      <point x="232" y="231" type="line"/>
      <point x="232" y="631" type="line"/>
      <point x="48" y="231" type="line"/>
    </contour>
  </outline>
</glyph>
<glyph name="five" format="1">
  <advance width="340"/>
  <unicode hex="0035"/>
  <outline>
    <contour>
      <point x="308" y="242" type="curve" smooth="yes"/>
      <point x="308" y="84"/>
      <point x="247" y="-7"/>
      <point x="156" y="-7" type="curve" smooth="yes"/>
      <point x="102" y="-7"/>
      <point x="66" y="19"/>
      <point x="33" y="59" type="curve"/>
      <point x="58" y="84" type="line"/>
      <point x="93" y="43"/>
      <point x="123" y="25"/>
      <point x="158" y="25" type="curve" smooth="yes"/>
      <point x="227" y="25"/>
      <point x="272" y="107"/>
      <point x="272" y="243" type="curve" smooth="yes"/>
      <point x="272" y="372"/>
      <point x="238" y="447"/>
      <point x="168" y="447" type="curve" smooth="yes"/>
      <point x="119" y="447"/>
      <point x="91" y="401"/>
      <point x="74" y="342" type="curve"/>
      <point x="46" y="349" type="line"/>
      <point x="55" y="730" type="line"/>
      <point x="274" y="730" type="line"/>
      <point x="274" y="698" type="line"/>
      <point x="87" y="698" type="line"/>
      <point x="82" y="424" type="line"/>
      <point x="108" y="463"/>
      <point x="133" y="479"/>
      <point x="172" y="479" type="curve" smooth="yes"/>
      <point x="265" y="479"/>
      <point x="308" y="388"/>
    </contour>
  </outline>
</glyph>
<glyph name="six" format="1">
  <advance width="352"/>
  <unicode hex="0036"/>
  <outline>
    <contour>
      <point x="322" y="225" type="curve" smooth="yes"/>
      <point x="322" y="94"/>
      <point x="273" y="-12"/>
      <point x="179" y="-12" type="curve" smooth="yes"/>
      <point x="87" y="-12"/>
      <point x="34" y="90"/>
      <point x="34" y="235" type="curve" smooth="yes"/>
      <point x="34" y="300"/>
      <point x="52" y="393"/>
      <point x="71" y="450" type="curve" smooth="yes"/>
      <point x="162" y="730" type="line"/>
      <point x="201" y="730" type="line"/>
      <point x="92" y="402" type="line"/>
      <point x="117" y="430"/>
      <point x="143" y="448"/>
      <point x="183" y="448" type="curve" smooth="yes"/>
      <point x="273" y="448"/>
      <point x="322" y="339"/>
    </contour>
    <contour>
      <point x="286" y="222" type="curve" smooth="yes"/>
      <point x="286" y="317"/>
      <point x="257" y="416"/>
      <point x="177" y="416" type="curve" smooth="yes"/>
      <point x="101" y="416"/>
      <point x="70" y="316"/>
      <point x="70" y="228" type="curve" smooth="yes"/>
      <point x="70" y="106"/>
      <point x="105" y="20"/>
      <point x="182" y="20" type="curve" smooth="yes"/>
      <point x="251" y="20"/>
      <point x="286" y="112"/>
    </contour>
  </outline>
</glyph>
<glyph name="seven" format="1">
  <advance width="310"/>
  <unicode hex="0037"/>
  <outline>
    <contour>
      <point x="286" y="730" type="line"/>
      <point x="94" y="0" type="line"/>
      <point x="59" y="0" type="line"/>
      <point x="241" y="698" type="line"/>
      <point x="25" y="698" type="line"/>
      <point x="25" y="730" type="line"/>
    </contour>
  </outline>
</glyph>
<glyph name="eight" format="1">
  <advance width="356"/>
  <unicode hex="0038"/>
  <outline>
    <contour>
      <point x="328" y="194" type="curve" smooth="yes"/>
      <point x="328" y="72"/>
      <point x="270" y="-12"/>
      <point x="177" y="-12" type="curve" smooth="yes"/>
      <point x="84" y="-12"/>
      <point x="28" y="72"/>
      <point x="28" y="194" type="curve" smooth="yes"/>
      <point x="28" y="288"/>
      <point x="75" y="358"/>
      <point x="119" y="383" type="curve"/>
      <point x="80" y="412"/>
      <point x="52" y="465"/>
      <point x="52" y="551" type="curve" smooth="yes"/>
      <point x="52" y="659"/>
      <point x="99" y="742"/>
      <point x="179" y="742" type="curve" smooth="yes"/>
      <point x="259" y="742"/>
      <point x="304" y="659"/>
      <point x="304" y="551" type="curve" smooth="yes"/>
      <point x="304" y="465"/>
      <point x="276" y="412"/>
      <point x="237" y="383" type="curve"/>
      <point x="281" y="358"/>
      <point x="328" y="288"/>
    </contour>
    <contour>
      <point x="268" y="551" type="curve" smooth="yes"/>
      <point x="268" y="628"/>
      <point x="244" y="710"/>
      <point x="177" y="710" type="curve" smooth="yes"/>
      <point x="110" y="710"/>
      <point x="88" y="628"/>
      <point x="88" y="551" type="curve" smooth="yes"/>
      <point x="88" y="476"/>
      <point x="110" y="400"/>
      <point x="179" y="400" type="curve" smooth="yes"/>
      <point x="248" y="400"/>
      <point x="268" y="476"/>
    </contour>
    <contour>
      <point x="292" y="191" type="curve" smooth="yes"/>
      <point x="292" y="278"/>
      <point x="248" y="367"/>
      <point x="177" y="367" type="curve" smooth="yes"/>
      <point x="106" y="367"/>
      <point x="64" y="278"/>
      <point x="64" y="191" type="curve" smooth="yes"/>
      <point x="64" y="102"/>
      <point x="96" y="20"/>
      <point x="179" y="20" type="curve" smooth="yes"/>
      <point x="262" y="20"/>
      <point x="292" y="102"/>
    </contour>
  </outline>
</glyph>
<glyph name="nine" format="1">
  <advance width="352"/>
  <unicode hex="0039"/>
  <outline>
    <contour>
      <point x="318" y="495" type="curve" smooth="yes"/>
      <point x="318" y="430"/>
      <point x="300" y="337"/>
      <point x="281" y="280" type="curve" smooth="yes"/>
      <point x="188" y="-7" type="line"/>
      <point x="154" y="6" type="line"/>
      <point x="260" y="328" type="line"/>
      <point x="235" y="300"/>
      <point x="209" y="282"/>
      <point x="169" y="282" type="curve" smooth="yes"/>
      <point x="79" y="282"/>
      <point x="30" y="391"/>
      <point x="30" y="505" type="curve" smooth="yes"/>
      <point x="30" y="636"/>
      <point x="79" y="742"/>
      <point x="173" y="742" type="curve" smooth="yes"/>
      <point x="265" y="742"/>
      <point x="318" y="640"/>
    </contour>
    <contour>
      <point x="282" y="502" type="curve" smooth="yes"/>
      <point x="282" y="624"/>
      <point x="247" y="710"/>
      <point x="170" y="710" type="curve" smooth="yes"/>
      <point x="101" y="710"/>
      <point x="66" y="618"/>
      <point x="66" y="508" type="curve" smooth="yes"/>
      <point x="66" y="413"/>
      <point x="95" y="314"/>
      <point x="175" y="314" type="curve" smooth="yes"/>
      <point x="251" y="314"/>
      <point x="282" y="414"/>
    </contour>
  </outline>
</glyph>
<glyph name="colon" format="1">
  <advance width="122"/>
  <unicode hex="003A"/>
  <outline>
    <contour>
      <point x="79" y="331" type="line"/>
      <point x="43" y="331" type="line"/>
      <point x="43" y="401" type="line"/>
      <point x="79" y="401" type="line"/>
    </contour>
    <contour>
      <point x="79" y="0" type="line"/>
      <point x="43" y="0" type="line"/>
      <point x="43" y="70" type="line"/>
      <point x="79" y="70" type="line"/>
    </contour>
  </outline>
</glyph>
<glyph name="semicolon" format="1">
  <advance width="122"/>
  <unicode hex="003B"/>
  <outline>
    <contour>
      <point x="79" y="331" type="line"/>
      <point x="43" y="331" type="line"/>
      <point x="43" y="401" type="line"/>
      <point x="79" y="401" type="line"/>
    </contour>
    <contour>
      <point x="78" y="36" type="line" smooth="yes"/>
      <point x="78" y="-9"/>
      <point x="60" y="-59"/>
      <point x="38" y="-91" type="curve"/>
      <point x="14" y="-91" type="line"/>
      <point x="36" y="-55"/>
      <point x="44" y="-20"/>
      <point x="44" y="35" type="curve" smooth="yes"/>
      <point x="44" y="70" type="line"/>
      <point x="78" y="70" type="line"/>
    </contour>
  </outline>
</glyph>
<glyph name="less" format="1">
  <advance width="350"/>
  <unicode hex="003C"/>
  <outline>
    <contour>
      <point x="309" y="112" type="line"/>
      <point x="38" y="315" type="line"/>
      <point x="38" y="334" type="line"/>
      <point x="309" y="535" type="line"/>
      <point x="309" y="498" type="line"/>
      <point x="75" y="325" type="line"/>
      <point x="309" y="151" type="line"/>
    </contour>
  </outline>
</glyph>
<glyph name="equal" format="1">
  <advance width="440"/>
  <unicode hex="003D"/>
  <outline>
    <contour>
      <point x="396" y="396" type="line"/>
      <point x="44" y="396" type="line"/>
      <point x="44" y="428" type="line"/>
      <point x="396" y="428" type="line"/>
    </contour>
    <contour>
      <point x="396" y="238" type="line"/>
      <point x="44" y="238" type="line"/>
      <point x="44" y="270" type="line"/>
      <point x="396" y="270" type="line"/>
    </contour>
  </outline>
</glyph>
<glyph name="greater" format="1">
  <advance width="350"/>
  <unicode hex="003E"/>
  <outline>
    <contour>
      <point x="312" y="313" type="line"/>
      <point x="41" y="112" type="line"/>
      <point x="41" y="149" type="line"/>
      <point x="275" y="322" type="line"/>
      <point x="41" y="496" type="line"/>
      <point x="41" y="535" type="line"/>
      <point x="312" y="332" type="line"/>
    </contour>
  </outline>
</glyph>
<glyph name="question" format="1">
  <advance width="290"/>
  <unicode hex="003F"/>
  <outline>
    <contour>
      <point x="256" y="607" type="curve" smooth="yes"/>
      <point x="256" y="548"/>
      <point x="235" y="489"/>
      <point x="199" y="412" type="curve" smooth="yes"/>
      <point x="174" y="359"/>
      <point x="150" y="279"/>
      <point x="150" y="202" type="curve" smooth="yes"/>
      <point x="150" y="123" type="line"/>
      <point x="121" y="123" type="line"/>
      <point x="121" y="197" type="line" smooth="yes"/>
      <point x="121" y="278"/>
      <point x="138" y="358"/>
      <point x="164" y="414" type="curve" smooth="yes"/>
      <point x="202" y="496"/>
      <point x="220" y="552"/>
      <point x="220" y="602" type="curve" smooth="yes"/>
      <point x="220" y="666"/>
      <point x="186" y="710"/>
      <point x="143" y="710" type="curve" smooth="yes"/>
      <point x="96" y="710"/>
      <point x="70" y="682"/>
      <point x="54" y="627" type="curve"/>
      <point x="25" y="638" type="line"/>
      <point x="40" y="699"/>
      <point x="81" y="742"/>
      <point x="143" y="742" type="curve" smooth="yes"/>
      <point x="213" y="742"/>
      <point x="256" y="684"/>
    </contour>
    <contour>
      <point x="154" y="0" type="line"/>
      <point x="117" y="0" type="line"/>
      <point x="117" y="70" type="line"/>
      <point x="154" y="70" type="line"/>
    </contour>
  </outline>
</glyph>
<glyph name="A" format="1">
  <advance width="486"/>
  <unicode hex="0041"/>
  <outline>
    <contour>
      <point x="433" y="0" type="line"/>
      <point x="397" y="0" type="line"/>
      <point x="349" y="179" type="line"/>
      <point x="101" y="179" type="line"/>
      <point x="53" y="0" type="line"/>
      <point x="17" y="0" type="line"/>
      <point x="217" y="743" type="line"/>
      <point x="234" y="743" type="line"/>
    </contour>
    <contour>
      <point x="340" y="211" type="line"/>
      <point x="224" y="645" type="line"/>
      <point x="109" y="211" type="line"/>
    </contour>
  </outline>
</glyph>
<glyph name="B" format="1">
  <advance width="376"/>
  <unicode hex="0042"/>
  <outline>
    <contour>
      <point x="345" y="197" type="curve" smooth="yes"/>
      <point x="345" y="71"/>
      <point x="274" y="0"/>
      <point x="137" y="0" type="curve" smooth="yes"/>
      <point x="61" y="0" type="line"/>
      <point x="61" y="730" type="line"/>
      <point x="137" y="730" type="line" smooth="yes"/>
      <point x="242" y="730"/>
      <point x="324" y="665"/>
      <point x="324" y="549" type="curve" smooth="yes"/>
      <point x="324" y="456"/>
      <point x="289" y="403"/>
      <point x="225" y="374" type="curve"/>
      <point x="285" y="360"/>
      <point x="345" y="292"/>
    </contour>
    <contour>
      <point x="288" y="548" type="curve" smooth="yes"/>
      <point x="288" y="635"/>
      <point x="230" y="698"/>
      <point x="133" y="698" type="curve" smooth="yes"/>
      <point x="96" y="698" type="line"/>
      <point x="96" y="388" type="line"/>
      <point x="151" y="388" type="line" smooth="yes"/>
      <point x="243" y="388"/>
      <point x="288" y="456"/>
    </contour>
    <contour>
      <point x="309" y="193" type="curve" smooth="yes"/>
      <point x="309" y="303"/>
      <point x="236" y="356"/>
      <point x="157" y="356" type="curve" smooth="yes"/>
      <point x="96" y="356" type="line"/>
      <point x="96" y="32" type="line"/>
      <point x="136" y="32" type="line" smooth="yes"/>
      <point x="255" y="32"/>
      <point x="309" y="94"/>
    </contour>
  </outline>
</glyph>
<glyph name="C" format="1">
  <advance width="373"/>
  <unicode hex="0043"/>
  <outline>
    <contour>
      <point x="357" y="56" type="line"/>
      <point x="332" y="24"/>
      <point x="291" y="-12"/>
      <point x="232" y="-12" type="curve" smooth="yes"/>
      <point x="103" y="-12"/>
      <point x="35" y="157"/>
      <point x="35" y="365" type="curve" smooth="yes"/>
      <point x="35" y="573"/>
      <point x="100" y="742"/>
      <point x="231" y="742" type="curve" smooth="yes"/>
      <point x="289" y="742"/>
      <point x="327" y="706"/>
      <point x="352" y="674" type="curve"/>
      <point x="329" y="650" type="line"/>
      <point x="304" y="684"/>
      <point x="278" y="710"/>
      <point x="229" y="710" type="curve" smooth="yes"/>
      <point x="119" y="710"/>
      <point x="71" y="549"/>
      <point x="71" y="365" type="curve" smooth="yes"/>
      <point x="71" y="180"/>
      <point x="121" y="20"/>
      <point x="235" y="20" type="curve" smooth="yes"/>
      <point x="279" y="20"/>
      <point x="310" y="45"/>
      <point x="335" y="79" type="curve"/>
    </contour>
  </outline>
</glyph>
<glyph name="D" format="1">
  <advance width="430"/>
  <unicode hex="0044"/>
  <outline>
    <contour>
      <point x="392" y="372" type="curve" smooth="yes"/>
      <point x="392" y="144"/>
      <point x="299" y="0"/>
      <point x="130" y="0" type="curve" smooth="yes"/>
      <point x="61" y="0" type="line"/>
      <point x="61" y="730" type="line"/>
      <point x="133" y="730" type="line" smooth="yes"/>
      <point x="315" y="730"/>
      <point x="392" y="566"/>
    </contour>
    <contour>
      <point x="356" y="373" type="curve" smooth="yes"/>
      <point x="356" y="561"/>
      <point x="282" y="698"/>
      <point x="131" y="698" type="curve" smooth="yes"/>
      <point x="96" y="698" type="line"/>
      <point x="96" y="32" type="line"/>
      <point x="137" y="32" type="line" smooth="yes"/>
      <point x="288" y="32"/>
      <point x="356" y="169"/>
    </contour>
  </outline>
</glyph>
<glyph name="E" format="1">
  <advance width="347"/>
  <unicode hex="0045"/>
  <outline>
    <contour>
      <point x="316" y="0" type="line"/>
      <point x="61" y="0" type="line"/>
      <point x="61" y="730" type="line"/>
      <point x="307" y="730" type="line"/>
      <point x="307" y="698" type="line"/>
      <point x="96" y="698" type="line"/>
      <point x="96" y="384" type="line"/>
      <point x="285" y="384" type="line"/>
      <point x="285" y="352" type="line"/>
      <point x="96" y="352" type="line"/>
      <point x="96" y="32" type="line"/>
      <point x="316" y="32" type="line"/>
    </contour>
  </outline>
</glyph>
<glyph name="F" format="1">
  <advance width="312"/>
  <unicode hex="0046"/>
  <outline>
    <contour>
      <point x="285" y="698" type="line"/>
      <point x="96" y="698" type="line"/>
      <point x="96" y="382" type="line"/>
      <point x="263" y="382" type="line"/>
      <point x="263" y="350" type="line"/>
      <point x="96" y="350" type="line"/>
      <point x="96" y="0" type="line"/>
      <point x="61" y="0" type="line"/>
      <point x="61" y="730" type="line"/>
      <point x="285" y="730" type="line"/>
    </contour>
  </outline>
</glyph>
<glyph name="G" format="1">
  <advance width="418"/>
  <unicode hex="0047"/>
  <outline>
    <contour>
      <point x="374" y="51" type="line"/>
      <point x="337" y="16"/>
      <point x="290" y="-12"/>
      <point x="234" y="-12" type="curve" smooth="yes"/>
      <point x="100" y="-12"/>
      <point x="35" y="157"/>
      <point x="35" y="365" type="curve" smooth="yes"/>
      <point x="35" y="573"/>
      <point x="101" y="742"/>
      <point x="227" y="742" type="curve" smooth="yes"/>
      <point x="291" y="742"/>
      <point x="327" y="706"/>
      <point x="356" y="661" type="curve"/>
      <point x="334" y="635" type="line"/>
      <point x="303" y="684"/>
      <point x="280" y="710"/>
      <point x="227" y="710" type="curve" smooth="yes"/>
      <point x="120" y="710"/>
      <point x="71" y="550"/>
      <point x="71" y="365" type="curve" smooth="yes"/>
      <point x="71" y="180"/>
      <point x="119" y="20"/>
      <point x="234" y="20" type="curve" smooth="yes"/>
      <point x="282" y="20"/>
      <point x="312" y="41"/>
      <point x="339" y="64" type="curve"/>
      <point x="339" y="333" type="line"/>
      <point x="248" y="333" type="line"/>
      <point x="248" y="365" type="line"/>
      <point x="374" y="365" type="line"/>
    </contour>
  </outline>
</glyph>
<glyph name="H" format="1">
  <advance width="447"/>
  <unicode hex="0048"/>
  <outline>
    <contour>
      <point x="386" y="0" type="line"/>
      <point x="351" y="0" type="line"/>
      <point x="351" y="352" type="line"/>
      <point x="96" y="352" type="line"/>
      <point x="96" y="0" type="line"/>
      <point x="61" y="0" type="line"/>
      <point x="61" y="730" type="line"/>
      <point x="96" y="730" type="line"/>
      <point x="96" y="384" type="line"/>
      <point x="351" y="384" type="line"/>
      <point x="351" y="730" type="line"/>
      <point x="386" y="730" type="line"/>
    </contour>
  </outline>
</glyph>
<glyph name="I" format="1">
  <advance width="167"/>
  <unicode hex="0049"/>
  <outline>
    <contour>
      <point x="101" y="0" type="line"/>
      <point x="66" y="0" type="line"/>
      <point x="66" y="730" type="line"/>
      <point x="101" y="730" type="line"/>
    </contour>
  </outline>
</glyph>
<glyph name="J" format="1">
  <advance width="194"/>
  <unicode hex="004A"/>
  <outline>
    <contour>
      <point x="135" y="135" type="line" smooth="yes"/>
      <point x="135" y="47"/>
      <point x="81" y="-1"/>
      <point x="23" y="-7" type="curve"/>
      <point x="23" y="26" type="line"/>
      <point x="66" y="33"/>
      <point x="99" y="69"/>
      <point x="99" y="130" type="curve" smooth="yes"/>
      <point x="99" y="730" type="line"/>
      <point x="135" y="730" type="line"/>
    </contour>
  </outline>
</glyph>
<glyph name="K" format="1">
  <advance width="374"/>
  <unicode hex="004B"/>
  <outline>
    <contour>
      <point x="361" y="730" type="line"/>
      <point x="166" y="443" type="line"/>
      <point x="363" y="0" type="line"/>
      <point x="322" y="0" type="line"/>
      <point x="142" y="407" type="line"/>
      <point x="96" y="340" type="line"/>
      <point x="96" y="0" type="line"/>
      <point x="61" y="0" type="line"/>
      <point x="61" y="730" type="line"/>
      <point x="96" y="730" type="line"/>
      <point x="96" y="397" type="line"/>
      <point x="318" y="730" type="line"/>
    </contour>
  </outline>
</glyph>
<glyph name="L" format="1">
  <advance width="315"/>
  <unicode hex="004C"/>
  <outline>
    <contour>
      <point x="302" y="0" type="line"/>
      <point x="61" y="0" type="line"/>
      <point x="61" y="730" type="line"/>
      <point x="96" y="730" type="line"/>
      <point x="96" y="32" type="line"/>
      <point x="302" y="32" type="line"/>
    </contour>
  </outline>
</glyph>
<glyph name="M" format="1">
  <advance width="536"/>
  <unicode hex="004D"/>
  <outline>
    <contour>
      <point x="475" y="0" type="line"/>
      <point x="440" y="0" type="line"/>
      <point x="440" y="623" type="line"/>
      <point x="278" y="228" type="line"/>
      <point x="258" y="228" type="line"/>
      <point x="95" y="623" type="line"/>
      <point x="95" y="0" type="line"/>
      <point x="61" y="0" type="line"/>
      <point x="61" y="730" type="line"/>
      <point x="91" y="730" type="line"/>
      <point x="268" y="291" type="line"/>
      <point x="445" y="730" type="line"/>
      <point x="475" y="730" type="line"/>
    </contour>
  </outline>
</glyph>
<glyph name="N" format="1">
  <advance width="454"/>
  <unicode hex="004E"/>
  <outline>
    <contour>
      <point x="393" y="0" type="line"/>
      <point x="367" y="0" type="line"/>
      <point x="95" y="628" type="line"/>
      <point x="95" y="0" type="line"/>
      <point x="61" y="0" type="line"/>
      <point x="61" y="730" type="line"/>
      <point x="90" y="730" type="line"/>
      <point x="359" y="109" type="line"/>
      <point x="359" y="730" type="line"/>
      <point x="393" y="730" type="line"/>
    </contour>
  </outline>
</glyph>
<glyph name="O" format="1">
  <advance width="468"/>
  <unicode hex="004F"/>
  <outline>
    <contour>
      <point x="433" y="365" type="curve" smooth="yes"/>
      <point x="433" y="157"/>
      <point x="368" y="-12"/>
      <point x="234" y="-12" type="curve" smooth="yes"/>
      <point x="100" y="-12"/>
      <point x="35" y="157"/>
      <point x="35" y="365" type="curve" smooth="yes"/>
      <point x="35" y="573"/>
      <point x="100" y="742"/>
      <point x="234" y="742" type="curve" smooth="yes"/>
      <point x="368" y="742"/>
      <point x="433" y="573"/>
    </contour>
    <contour>
      <point x="397" y="365" type="curve" smooth="yes"/>
      <point x="397" y="550"/>
      <point x="349" y="710"/>
      <point x="234" y="710" type="curve" smooth="yes"/>
      <point x="119" y="710"/>
      <point x="71" y="550"/>
      <point x="71" y="365" type="curve" smooth="yes"/>
      <point x="71" y="180"/>
      <point x="119" y="20"/>
      <point x="234" y="20" type="curve" smooth="yes"/>
      <point x="349" y="20"/>
      <point x="397" y="180"/>
    </contour>
  </outline>
</glyph>
<glyph name="P" format="1">
  <advance width="351"/>
  <unicode hex="0050"/>
  <outline>
    <contour>
      <point x="328" y="525" type="curve" smooth="yes"/>
      <point x="328" y="418"/>
      <point x="250" y="315"/>
      <point x="121" y="315" type="curve" smooth="yes"/>
      <point x="96" y="315" type="line"/>
      <point x="96" y="0" type="line"/>
      <point x="61" y="0" type="line"/>
      <point x="61" y="730" type="line"/>
      <point x="127" y="730" type="line" smooth="yes"/>
      <point x="232" y="730"/>
      <point x="328" y="664"/>
    </contour>
    <contour>
      <point x="292" y="524" type="curve" smooth="yes"/>
      <point x="292" y="641"/>
      <point x="222" y="698"/>
      <point x="124" y="698" type="curve" smooth="yes"/>
      <point x="96" y="698" type="line"/>
      <point x="96" y="347" type="line"/>
      <point x="124" y="347" type="line" smooth="yes"/>
      <point x="228" y="347"/>
      <point x="292" y="424"/>
    </contour>
  </outline>
</glyph>
<glyph name="Q" format="1">
  <advance width="468"/>
  <unicode hex="0051"/>
  <outline>
    <contour>
      <point x="433" y="365" type="curve" smooth="yes"/>
      <point x="433" y="235"/>
      <point x="407" y="120"/>
      <point x="355" y="52" type="curve"/>
      <point x="372" y="39"/>
      <point x="391" y="26"/>
      <point x="412" y="14" type="curve"/>
      <point x="382" y="-17" type="line"/>
      <point x="363" y="-4"/>
      <point x="346" y="10"/>
      <point x="330" y="25" type="curve"/>
      <point x="304" y="2"/>
      <point x="272" y="-12"/>
      <point x="234" y="-12" type="curve" smooth="yes"/>
      <point x="100" y="-12"/>
      <point x="35" y="157"/>
      <point x="35" y="365" type="curve" smooth="yes"/>
      <point x="35" y="573"/>
      <point x="100" y="742"/>
      <point x="234" y="742" type="curve" smooth="yes"/>
      <point x="368" y="742"/>
      <point x="433" y="573"/>
    </contour>
    <contour>
      <point x="397" y="365" type="curve" smooth="yes"/>
      <point x="397" y="550"/>
      <point x="349" y="710"/>
      <point x="234" y="710" type="curve" smooth="yes"/>
      <point x="119" y="710"/>
      <point x="71" y="550"/>
      <point x="71" y="365" type="curve" smooth="yes"/>
      <point x="71" y="180"/>
      <point x="119" y="20"/>
      <point x="234" y="20" type="curve" smooth="yes"/>
      <point x="263" y="20"/>
      <point x="288" y="30"/>
      <point x="309" y="49" type="curve"/>
      <point x="295" y="66"/>
      <point x="283" y="84"/>
      <point x="274" y="100" type="curve"/>
      <point x="292" y="120" type="line"/>
      <point x="303" y="104"/>
      <point x="315" y="89"/>
      <point x="331" y="73" type="curve"/>
      <point x="377" y="135"/>
      <point x="397" y="245"/>
    </contour>
  </outline>
</glyph>
<glyph name="R" format="1">
  <advance width="356"/>
  <unicode hex="0052"/>
  <outline>
    <contour>
      <point x="339" y="0" type="line"/>
      <point x="299" y="0" type="line"/>
      <point x="96" y="350" type="line"/>
      <point x="96" y="0" type="line"/>
      <point x="61" y="0" type="line"/>
      <point x="61" y="730" type="line"/>
      <point x="125" y="730" type="line" smooth="yes"/>
      <point x="228" y="730"/>
      <point x="328" y="675"/>
      <point x="328" y="535" type="curve" smooth="yes"/>
      <point x="328" y="423"/>
      <point x="248" y="341"/>
      <point x="143" y="335" type="curve"/>
    </contour>
    <contour>
      <point x="292" y="534" type="curve" smooth="yes"/>
      <point x="292" y="651"/>
      <point x="222" y="698"/>
      <point x="124" y="698" type="curve" smooth="yes"/>
      <point x="96" y="698" type="line"/>
      <point x="96" y="363" type="line"/>
      <point x="129" y="363" type="line" smooth="yes"/>
      <point x="221" y="363"/>
      <point x="292" y="426"/>
    </contour>
  </outline>
</glyph>
<glyph name="S" format="1">
  <advance width="338"/>
  <unicode hex="0053"/>
  <outline>
    <contour>
      <point x="305" y="151" type="curve" smooth="yes"/>
      <point x="305" y="68"/>
      <point x="246" y="-12"/>
      <point x="164" y="-12" type="curve" smooth="yes"/>
      <point x="105" y="-12"/>
      <point x="68" y="14"/>
      <point x="29" y="66" type="curve"/>
      <point x="54" y="91" type="line"/>
      <point x="86" y="45"/>
      <point x="118" y="20"/>
      <point x="166" y="20" type="curve" smooth="yes"/>
      <point x="228" y="20"/>
      <point x="269" y="85"/>
      <point x="269" y="149" type="curve" smooth="yes"/>
      <point x="269" y="210"/>
      <point x="249" y="264"/>
      <point x="171" y="350" type="curve" smooth="yes"/>
      <point x="66" y="466"/>
      <point x="39" y="514"/>
      <point x="39" y="589" type="curve" smooth="yes"/>
      <point x="39" y="680"/>
      <point x="102" y="742"/>
      <point x="169" y="742" type="curve" smooth="yes"/>
      <point x="228" y="742"/>
      <point x="262" y="711"/>
      <point x="288" y="674" type="curve"/>
      <point x="263" y="650" type="line"/>
      <point x="238" y="685"/>
      <point x="211" y="710"/>
      <point x="170" y="710" type="curve" smooth="yes"/>
      <point x="116" y="710"/>
      <point x="75" y="659"/>
      <point x="75" y="591" type="curve" smooth="yes"/>
      <point x="75" y="539"/>
      <point x="95" y="491"/>
      <point x="173" y="405" type="curve" smooth="yes"/>
      <point x="277" y="289"/>
      <point x="305" y="234"/>
    </contour>
  </outline>
</glyph>
<glyph name="T" format="1">
  <advance width="325"/>
  <unicode hex="0054"/>
  <outline>
    <contour>
      <point x="310" y="698" type="line"/>
      <point x="180" y="698" type="line"/>
      <point x="180" y="0" type="line"/>
      <point x="145" y="0" type="line"/>
      <point x="145" y="698" type="line"/>
      <point x="15" y="698" type="line"/>
      <point x="15" y="730" type="line"/>
      <point x="310" y="730" type="line"/>
    </contour>
  </outline>
</glyph>
<glyph name="U" format="1">
  <advance width="454"/>
  <unicode hex="0055"/>
  <outline>
    <contour>
      <point x="397" y="178" type="line" smooth="yes"/>
      <point x="397" y="69"/>
      <point x="317" y="-12"/>
      <point x="226" y="-12" type="curve" smooth="yes"/>
      <point x="134" y="-12"/>
      <point x="57" y="68"/>
      <point x="57" y="178" type="curve" smooth="yes"/>
      <point x="57" y="730" type="line"/>
      <point x="92" y="730" type="line"/>
      <point x="92" y="198" type="line" smooth="yes"/>
      <point x="92" y="88"/>
      <point x="147" y="24"/>
      <point x="227" y="24" type="curve" smooth="yes"/>
      <point x="309" y="24"/>
      <point x="362" y="88"/>
      <point x="362" y="198" type="curve" smooth="yes"/>
      <point x="362" y="730" type="line"/>
      <point x="397" y="730" type="line"/>
    </contour>
  </outline>
</glyph>
<glyph name="V" format="1">
  <advance width="426"/>
  <unicode hex="0056"/>
  <outline>
    <contour>
      <point x="411" y="730" type="line"/>
      <point x="221" y="0" type="line"/>
      <point x="204" y="0" type="line"/>
      <point x="15" y="730" type="line"/>
      <point x="51" y="730" type="line"/>
      <point x="214" y="96" type="line"/>
      <point x="375" y="730" type="line"/>
    </contour>
  </outline>
</glyph>
<glyph name="W" format="1">
  <advance width="658"/>
  <unicode hex="0057"/>
  <outline>
    <contour>
      <point x="642" y="730" type="line"/>
      <point x="491" y="0" type="line"/>
      <point x="474" y="0" type="line"/>
      <point x="328" y="612" type="line"/>
      <point x="184" y="0" type="line"/>
      <point x="167" y="0" type="line"/>
      <point x="16" y="730" type="line"/>
      <point x="52" y="730" type="line"/>
      <point x="177" y="110" type="line"/>
      <point x="320" y="730" type="line"/>
      <point x="338" y="730" type="line"/>
      <point x="481" y="110" type="line"/>
      <point x="606" y="730" type="line"/>
    </contour>
  </outline>
</glyph>
<glyph name="X" format="1">
  <advance width="410"/>
  <unicode hex="0058"/>
  <outline>
    <contour>
      <point x="394" y="0" type="line"/>
      <point x="357" y="0" type="line"/>
      <point x="205" y="355" type="line"/>
      <point x="51" y="0" type="line"/>
      <point x="16" y="0" type="line"/>
      <point x="186" y="391" type="line"/>
      <point x="43" y="730" type="line"/>
      <point x="80" y="730" type="line"/>
      <point x="205" y="427" type="line"/>
      <point x="332" y="730" type="line"/>
      <point x="367" y="730" type="line"/>
      <point x="224" y="390" type="line"/>
    </contour>
  </outline>
</glyph>
<glyph name="Y" format="1">
  <advance width="411"/>
  <unicode hex="0059"/>
  <outline>
    <contour>
      <point x="373" y="730" type="line"/>
      <point x="208" y="345" type="line"/>
      <point x="208" y="0" type="line"/>
      <point x="173" y="0" type="line"/>
      <point x="173" y="345" type="line"/>
      <point x="8" y="730" type="line"/>
      <point x="47" y="730" type="line"/>
      <point x="191" y="382" type="line"/>
      <point x="334" y="730" type="line"/>
    </contour>
  </outline>
</glyph>
<glyph name="Z" format="1">
  <advance width="363"/>
  <unicode hex="005A"/>
  <outline>
    <contour>
      <point x="346" y="730" type="line"/>
      <point x="62" y="31" type="line"/>
      <point x="327" y="31" type="line"/>
      <point x="327" y="0" type="line"/>
      <point x="14" y="0" type="line"/>
      <point x="298" y="699" type="line"/>
      <point x="50" y="699" type="line"/>
      <point x="50" y="730" type="line"/>
    </contour>
  </outline>
</glyph>
<glyph name="bracketleft" format="1">
  <advance width="230"/>
  <unicode hex="005B"/>
  <outline>
    <contour>
      <point x="195" y="-179" type="line"/>
      <point x="65" y="-179" type="line"/>
      <point x="65" y="730" type="line"/>
      <point x="195" y="730" type="line"/>
      <point x="195" y="706" type="line"/>
      <point x="96" y="706" type="line"/>
      <point x="96" y="-155" type="line"/>
      <point x="195" y="-155" type="line"/>
    </contour>
  </outline>
</glyph>
<glyph name="bracketright" format="1">
  <advance width="230"/>
  <unicode hex="005D"/>
  <outline>
    <contour>
      <point x="165" y="-179" type="line"/>
      <point x="35" y="-179" type="line"/>
      <point x="35" y="-155" type="line"/>
      <point x="134" y="-155" type="line"/>
      <point x="134" y="706" type="line"/>
      <point x="35" y="706" type="line"/>
      <point x="35" y="730" type="line"/>
      <point x="165" y="730" type="line"/>
    </contour>
  </outline>
</glyph>
<glyph name="asciicircum" format="1">
  <advance width="447"/>
  <unicode hex="005E"/>
  <outline>
    <contour>
      <point x="411" y="382" type="line"/>
      <point x="372" y="382" type="line"/>
      <point x="223" y="687" type="line"/>
      <point x="75" y="382" type="line"/>
      <point x="35" y="382" type="line"/>
      <point x="208" y="730" type="line"/>
      <point x="239" y="730" type="line"/>
    </contour>
  </outline>
</glyph>
<glyph name="grave" format="1">
  <advance width="395"/>
  <unicode hex="0060"/>
  <outline>
    <contour>
      <point x="245" y="484" type="line"/>
      <point x="210" y="484" type="line"/>
      <point x="148" y="616" type="line"/>
      <point x="183" y="616" type="line"/>
    </contour>
  </outline>
</glyph>
<glyph name="a" format="1">
  <advance width="304"/>
  <unicode hex="0061"/>
  <outline>
    <contour>
      <point x="262" y="0" type="line"/>
      <point x="229" y="0" type="line"/>
      <point x="229" y="35" type="line"/>
      <point x="202" y="7"/>
      <point x="176" y="-12"/>
      <point x="137" y="-12" type="curve" smooth="yes"/>
      <point x="80" y="-12"/>
      <point x="32" y="37"/>
      <point x="32" y="114" type="curve" smooth="yes"/>
      <point x="32" y="195"/>
      <point x="100" y="250"/>
      <point x="199" y="250" type="curve" smooth="yes"/>
      <point x="229" y="250" type="line"/>
      <point x="229" y="298" type="line" smooth="yes"/>
      <point x="229" y="354"/>
      <point x="212" y="383"/>
      <point x="160" y="383" type="curve" smooth="yes"/>
      <point x="126" y="383"/>
      <point x="91" y="369"/>
      <point x="62" y="349" type="curve"/>
      <point x="49" y="378" type="line"/>
      <point x="84" y="400"/>
      <point x="119" y="413"/>
      <point x="162" y="413" type="curve" smooth="yes"/>
      <point x="238" y="413"/>
      <point x="262" y="369"/>
      <point x="262" y="301" type="curve" smooth="yes"/>
    </contour>
    <contour>
      <point x="229" y="70" type="curve"/>
      <point x="229" y="221" type="line"/>
      <point x="203" y="221" type="line" smooth="yes"/>
      <point x="121" y="221"/>
      <point x="67" y="180"/>
      <point x="67" y="118" type="curve" smooth="yes"/>
      <point x="67" y="57"/>
      <point x="98" y="17"/>
      <point x="139" y="17" type="curve" smooth="yes"/>
      <point x="172" y="17"/>
      <point x="197" y="33"/>
    </contour>
  </outline>
</glyph>
<glyph name="b" format="1">
  <advance width="330"/>
  <unicode hex="0062"/>
  <outline>
    <contour>
      <point x="302" y="200" type="curve" smooth="yes"/>
      <point x="302" y="83"/>
      <point x="259" y="-12"/>
      <point x="174" y="-12" type="curve" smooth="yes"/>
      <point x="122" y="-12"/>
      <point x="99" y="21"/>
      <point x="80" y="60" type="curve"/>
      <point x="80" y="0" type="line"/>
      <point x="47" y="0" type="line"/>
      <point x="47" y="730" type="line"/>
      <point x="80" y="730" type="line"/>
      <point x="80" y="334" type="line"/>
      <point x="101" y="384"/>
      <point x="130" y="413"/>
      <point x="174" y="413" type="curve" smooth="yes"/>
      <point x="259" y="413"/>
      <point x="302" y="317"/>
    </contour>
    <contour>
      <point x="268" y="200" type="curve" smooth="yes"/>
      <point x="268" y="296"/>
      <point x="240" y="383"/>
      <point x="174" y="383" type="curve" smooth="yes"/>
      <point x="108" y="383"/>
      <point x="79" y="296"/>
      <point x="79" y="200" type="curve" smooth="yes"/>
      <point x="79" y="104"/>
      <point x="108" y="18"/>
      <point x="174" y="18" type="curve" smooth="yes"/>
      <point x="240" y="18"/>
      <point x="268" y="104"/>
    </contour>
  </outline>
</glyph>
<glyph name="c" format="1">
  <advance width="276"/>
  <unicode hex="0063"/>
  <outline>
    <contour>
      <point x="259" y="62" type="line"/>
      <point x="235" y="20"/>
      <point x="205" y="-12"/>
      <point x="155" y="-12" type="curve" smooth="yes"/>
      <point x="70" y="-12"/>
      <point x="27" y="83"/>
      <point x="27" y="200" type="curve" smooth="yes"/>
      <point x="27" y="317"/>
      <point x="70" y="413"/>
      <point x="155" y="413" type="curve" smooth="yes"/>
      <point x="205" y="413"/>
      <point x="232" y="376"/>
      <point x="251" y="341" type="curve"/>
      <point x="226" y="322" type="line"/>
      <point x="208" y="358"/>
      <point x="188" y="383"/>
      <point x="155" y="383" type="curve" smooth="yes"/>
      <point x="89" y="383"/>
      <point x="61" y="296"/>
      <point x="61" y="200" type="curve" smooth="yes"/>
      <point x="61" y="104"/>
      <point x="89" y="18"/>
      <point x="155" y="18" type="curve" smooth="yes"/>
      <point x="192" y="18"/>
      <point x="214" y="43"/>
      <point x="233" y="80" type="curve"/>
    </contour>
  </outline>
</glyph>
<glyph name="e" format="1">
  <advance width="291"/>
  <unicode hex="0065"/>
  <outline>
    <contour>
      <point x="267" y="57" type="line"/>
      <point x="241" y="17"/>
      <point x="204" y="-12"/>
      <point x="155" y="-12" type="curve" smooth="yes"/>
      <point x="70" y="-12"/>
      <point x="27" y="83"/>
      <point x="27" y="200" type="curve" smooth="yes"/>
      <point x="27" y="317"/>
      <point x="72" y="413"/>
      <point x="148" y="413" type="curve" smooth="yes"/>
      <point x="229" y="413"/>
      <point x="268" y="310"/>
      <point x="268" y="223" type="curve" smooth="yes"/>
      <point x="268" y="200" type="line"/>
      <point x="61" y="200" type="line"/>
      <point x="61" y="104"/>
      <point x="89" y="18"/>
      <point x="155" y="18" type="curve" smooth="yes"/>
      <point x="194" y="18"/>
      <point x="222" y="40"/>
      <point x="243" y="75" type="curve"/>
    </contour>
    <contour>
      <point x="233" y="228" type="line"/>
      <point x="233" y="239" type="line" smooth="yes"/>
      <point x="233" y="302"/>
      <point x="202" y="383"/>
      <point x="148" y="383" type="curve" smooth="yes"/>
      <point x="98" y="383"/>
      <point x="67" y="312"/>
      <point x="62" y="228" type="curve"/>
    </contour>
  </outline>
</glyph>
<glyph name="g" format="1">
  <advance width="330"/>
  <unicode hex="0067"/>
  <outline>
    <contour>
      <point x="283" y="-28" type="line" smooth="yes"/>
      <point x="283" y="-125"/>
      <point x="232" y="-179"/>
      <point x="158" y="-179" type="curve" smooth="yes"/>
      <point x="112" y="-179"/>
      <point x="74" y="-158"/>
      <point x="43" y="-125" type="curve"/>
      <point x="64" y="-98" type="line"/>
      <point x="91" y="-130"/>
      <point x="122" y="-149"/>
      <point x="160" y="-149" type="curve" smooth="yes"/>
      <point x="212" y="-149"/>
      <point x="250" y="-108"/>
      <point x="250" y="-33" type="curve" smooth="yes"/>
      <point x="250" y="67" type="line"/>
      <point x="229" y="17"/>
      <point x="200" y="-12"/>
      <point x="156" y="-12" type="curve" smooth="yes"/>
      <point x="71" y="-12"/>
      <point x="28" y="84"/>
      <point x="28" y="201" type="curve" smooth="yes"/>
      <point x="28" y="318"/>
      <point x="71" y="413"/>
      <point x="156" y="413" type="curve" smooth="yes"/>
      <point x="208" y="413"/>
      <point x="231" y="380"/>
      <point x="250" y="341" type="curve"/>
      <point x="250" y="401" type="line"/>
      <point x="283" y="401" type="line"/>
    </contour>
    <contour>
      <point x="251" y="201" type="curve" smooth="yes"/>
      <point x="251" y="297"/>
      <point x="222" y="383"/>
      <point x="156" y="383" type="curve" smooth="yes"/>
      <point x="90" y="383"/>
      <point x="62" y="297"/>
      <point x="62" y="201" type="curve" smooth="yes"/>
      <point x="62" y="105"/>
      <point x="90" y="18"/>
      <point x="156" y="18" type="curve" smooth="yes"/>
      <point x="222" y="18"/>
      <point x="251" y="105"/>
    </contour>
  </outline>
</glyph>
<glyph name="h" format="1">
  <advance width="317"/>
  <unicode hex="0068"/>
  <outline>
    <contour>
      <point x="275" y="0" type="line"/>
      <point x="242" y="0" type="line"/>
      <point x="242" y="283" type="line" smooth="yes"/>
      <point x="242" y="338"/>
      <point x="219" y="384"/>
      <point x="171" y="384" type="curve" smooth="yes"/>
      <point x="118" y="384"/>
      <point x="80" y="338"/>
      <point x="80" y="275" type="curve" smooth="yes"/>
      <point x="80" y="0" type="line"/>
      <point x="47" y="0" type="line"/>
      <point x="47" y="730" type="line"/>
      <point x="80" y="730" type="line"/>
      <point x="80" y="354" type="line"/>
      <point x="100" y="385"/>
      <point x="125" y="413"/>
      <point x="174" y="413" type="curve" smooth="yes"/>
      <point x="243" y="413"/>
      <point x="275" y="355"/>
      <point x="275" y="289" type="curve" smooth="yes"/>
    </contour>
  </outline>
</glyph>
<glyph name="j" format="1">
  <advance width="137"/>
  <unicode hex="006A"/>
  <outline>
    <contour>
      <point x="85" y="501" type="line"/>
      <point x="52" y="501" type="line"/>
      <point x="52" y="581" type="line"/>
      <point x="85" y="581" type="line"/>
    </contour>
    <contour>
      <point x="85" y="-87" type="line" smooth="yes"/>
      <point x="85" y="-151"/>
      <point x="52" y="-179"/>
      <point x="7" y="-179" type="curve"/>
      <point x="7" y="-146" type="line"/>
      <point x="37" y="-146"/>
      <point x="52" y="-124"/>
      <point x="52" y="-83" type="curve" smooth="yes"/>
      <point x="52" y="401" type="line"/>
      <point x="85" y="401" type="line"/>
    </contour>
  </outline>
</glyph>
<glyph name="k" format="1">
  <advance width="296"/>
  <unicode hex="006B"/>
  <outline>
    <contour>
      <point x="282" y="0" type="line"/>
      <point x="244" y="0" type="line"/>
      <point x="142" y="216" type="line"/>
      <point x="80" y="125" type="line"/>
      <point x="80" y="0" type="line"/>
      <point x="47" y="0" type="line"/>
      <point x="47" y="730" type="line"/>
      <point x="80" y="730" type="line"/>
      <point x="80" y="178" type="line"/>
      <point x="229" y="401" type="line"/>
      <point x="268" y="401" type="line"/>
      <point x="165" y="249" type="line"/>
    </contour>
  </outline>
</glyph>
<glyph name="l" format="1">
  <advance width="137"/>
  <unicode hex="006C"/>
  <outline>
    <contour>
      <point x="85" y="0" type="line"/>
      <point x="52" y="0" type="line"/>
      <point x="52" y="730" type="line"/>
      <point x="85" y="730" type="line"/>
    </contour>
  </outline>
</glyph>
<glyph name="m" format="1">
  <advance width="484"/>
  <unicode hex="006D"/>
  <outline>
    <contour>
      <point x="442" y="0" type="line"/>
      <point x="409" y="0" type="line"/>
      <point x="409" y="288" type="line" smooth="yes"/>
      <point x="409" y="343"/>
      <point x="384" y="384"/>
      <point x="345" y="384" type="curve" smooth="yes"/>
      <point x="302" y="384"/>
      <point x="261" y="343"/>
      <point x="261" y="280" type="curve" smooth="yes"/>
      <point x="261" y="0" type="line"/>
      <point x="228" y="0" type="line"/>
      <point x="228" y="288" type="line" smooth="yes"/>
      <point x="228" y="343"/>
      <point x="203" y="384"/>
      <point x="164" y="384" type="curve" smooth="yes"/>
      <point x="121" y="384"/>
      <point x="80" y="343"/>
      <point x="80" y="280" type="curve" smooth="yes"/>
      <point x="80" y="0" type="line"/>
      <point x="47" y="0" type="line"/>
      <point x="47" y="401" type="line"/>
      <point x="80" y="401" type="line"/>
      <point x="80" y="354" type="line"/>
      <point x="100" y="385"/>
      <point x="123" y="413"/>
      <point x="167" y="413" type="curve" smooth="yes"/>
      <point x="210" y="413"/>
      <point x="238" y="388"/>
      <point x="252" y="350" type="curve"/>
      <point x="273" y="387"/>
      <point x="303" y="413"/>
      <point x="343" y="413" type="curve" smooth="yes"/>
      <point x="408" y="413"/>
      <point x="442" y="360"/>
      <point x="442" y="294" type="curve" smooth="yes"/>
    </contour>
  </outline>
</glyph>
<glyph name="o" format="1">
  <advance width="310"/>
  <unicode hex="006F"/>
  <outline>
    <contour>
      <point x="283" y="200" type="curve" smooth="yes"/>
      <point x="283" y="83"/>
      <point x="240" y="-12"/>
      <point x="155" y="-12" type="curve" smooth="yes"/>
      <point x="70" y="-12"/>
      <point x="27" y="83"/>
      <point x="27" y="200" type="curve" smooth="yes"/>
      <point x="27" y="317"/>
      <point x="70" y="413"/>
      <point x="155" y="413" type="curve" smooth="yes"/>
      <point x="240" y="413"/>
      <point x="283" y="317"/>
    </contour>
    <contour>
      <point x="249" y="200" type="curve" smooth="yes"/>
      <point x="249" y="296"/>
      <point x="221" y="383"/>
      <point x="155" y="383" type="curve" smooth="yes"/>
      <point x="89" y="383"/>
      <point x="61" y="296"/>
      <point x="61" y="200" type="curve" smooth="yes"/>
      <point x="61" y="104"/>
      <point x="89" y="18"/>
      <point x="155" y="18" type="curve" smooth="yes"/>
      <point x="221" y="18"/>
      <point x="249" y="104"/>
    </contour>
  </outline>
</glyph>
<glyph name="q" format="1">
  <advance width="330"/>
  <unicode hex="0071"/>
  <outline>
    <contour>
      <point x="283" y="-179" type="line"/>
      <point x="250" y="-179" type="line"/>
      <point x="250" y="67" type="line"/>
      <point x="229" y="17"/>
      <point x="200" y="-12"/>
      <point x="156" y="-12" type="curve" smooth="yes"/>
      <point x="71" y="-12"/>
      <point x="28" y="84"/>
      <point x="28" y="201" type="curve" smooth="yes"/>
      <point x="28" y="318"/>
      <point x="71" y="413"/>
      <point x="156" y="413" type="curve" smooth="yes"/>
      <point x="208" y="413"/>
      <point x="231" y="380"/>
      <point x="250" y="341" type="curve"/>
      <point x="250" y="401" type="line"/>
      <point x="283" y="401" type="line"/>
    </contour>
    <contour>
      <point x="251" y="201" type="curve" smooth="yes"/>
      <point x="251" y="297"/>
      <point x="222" y="383"/>
      <point x="156" y="383" type="curve" smooth="yes"/>
      <point x="90" y="383"/>
      <point x="62" y="297"/>
      <point x="62" y="201" type="curve" smooth="yes"/>
      <point x="62" y="105"/>
      <point x="90" y="18"/>
      <point x="156" y="18" type="curve" smooth="yes"/>
      <point x="222" y="18"/>
      <point x="251" y="105"/>
    </contour>
  </outline>
</glyph>
<glyph name="r" format="1">
  <advance width="194"/>
  <unicode hex="0072"/>
  <outline>
    <contour>
      <point x="178" y="371" type="line"/>
      <point x="129" y="371"/>
      <point x="80" y="317"/>
      <point x="80" y="241" type="curve" smooth="yes"/>
      <point x="80" y="0" type="line"/>
      <point x="47" y="0" type="line"/>
      <point x="47" y="401" type="line"/>
      <point x="80" y="401" type="line"/>
      <point x="80" y="332" type="line"/>
      <point x="95" y="367"/>
      <point x="132" y="408"/>
      <point x="178" y="408" type="curve"/>
    </contour>
  </outline>
</glyph>
<glyph name="s" format="1">
  <advance width="256"/>
  <unicode hex="0073"/>
  <outline>
    <contour>
      <point x="237" y="97" type="curve" smooth="yes"/>
      <point x="237" y="32"/>
      <point x="183" y="-12"/>
      <point x="126" y="-12" type="curve" smooth="yes"/>
      <point x="79" y="-12"/>
      <point x="53" y="7"/>
      <point x="27" y="32" type="curve"/>
      <point x="47" y="58" type="line"/>
      <point x="70" y="34"/>
      <point x="93" y="18"/>
      <point x="128" y="18" type="curve" smooth="yes"/>
      <point x="175" y="18"/>
      <point x="203" y="58"/>
      <point x="203" y="95" type="curve" smooth="yes"/>
      <point x="203" y="131"/>
      <point x="190" y="153"/>
      <point x="130" y="190" type="curve" smooth="yes"/>
      <point x="62" y="232"/>
      <point x="30" y="261"/>
      <point x="30" y="315" type="curve" smooth="yes"/>
      <point x="30" y="368"/>
      <point x="76" y="413"/>
      <point x="130" y="413" type="curve" smooth="yes"/>
      <point x="173" y="413"/>
      <point x="196" y="398"/>
      <point x="221" y="375" type="curve"/>
      <point x="203" y="350" type="line"/>
      <point x="182" y="369"/>
      <point x="165" y="383"/>
      <point x="130" y="383" type="curve" smooth="yes"/>
      <point x="94" y="383"/>
      <point x="64" y="354"/>
      <point x="64" y="319" type="curve" smooth="yes"/>
      <point x="64" y="284"/>
      <point x="76" y="263"/>
      <point x="136" y="226" type="curve" smooth="yes"/>
      <point x="202" y="185"/>
      <point x="237" y="152"/>
    </contour>
  </outline>
</glyph>
<glyph name="t" format="1">
  <advance width="152"/>
  <unicode hex="0074"/>
  <outline>
    <contour>
      <point x="129" y="-5" type="line"/>
      <point x="84" y="-5"/>
      <point x="51" y="23"/>
      <point x="51" y="87" type="curve" smooth="yes"/>
      <point x="51" y="372" type="line"/>
      <point x="11" y="372" type="line"/>
      <point x="11" y="401" type="line"/>
      <point x="51" y="401" type="line"/>
      <point x="51" y="596" type="line"/>
      <point x="84" y="596" type="line"/>
      <point x="84" y="401" type="line"/>
      <point x="129" y="401" type="line"/>
      <point x="129" y="372" type="line"/>
      <point x="84" y="372" type="line"/>
      <point x="84" y="91" type="line" smooth="yes"/>
      <point x="84" y="50"/>
      <point x="99" y="28"/>
      <point x="129" y="28" type="curve"/>
    </contour>
  </outline>
</glyph>
<glyph name="u" format="1">
  <advance width="317"/>
  <unicode hex="0075"/>
  <outline>
    <contour>
      <point x="270" y="0" type="line"/>
      <point x="237" y="0" type="line"/>
      <point x="237" y="47" type="line"/>
      <point x="217" y="16"/>
      <point x="192" y="-12"/>
      <point x="143" y="-12" type="curve" smooth="yes"/>
      <point x="74" y="-12"/>
      <point x="42" y="46"/>
      <point x="42" y="112" type="curve" smooth="yes"/>
      <point x="42" y="401" type="line"/>
      <point x="75" y="401" type="line"/>
      <point x="75" y="118" type="line" smooth="yes"/>
      <point x="75" y="63"/>
      <point x="98" y="17"/>
      <point x="146" y="17" type="curve" smooth="yes"/>
      <point x="199" y="17"/>
      <point x="237" y="63"/>
      <point x="237" y="126" type="curve" smooth="yes"/>
      <point x="237" y="401" type="line"/>
      <point x="270" y="401" type="line"/>
    </contour>
  </outline>
</glyph>
<glyph name="v" format="1">
  <advance width="286"/>
  <unicode hex="0076"/>
  <outline>
    <contour>
      <point x="273" y="401" type="line"/>
      <point x="147" y="-16" type="line"/>
      <point x="139" y="-16" type="line"/>
      <point x="13" y="401" type="line"/>
      <point x="46" y="401" type="line"/>
      <point x="145" y="64" type="line"/>
      <point x="240" y="401" type="line"/>
    </contour>
  </outline>
</glyph>
<glyph name="w" format="1">
  <advance width="424"/>
  <unicode hex="0077"/>
  <outline>
    <contour>
      <point x="408" y="401" type="line"/>
      <point x="317" y="-16" type="line"/>
      <point x="309" y="-16" type="line"/>
      <point x="212" y="319" type="line"/>
      <point x="115" y="-16" type="line"/>
      <point x="107" y="-16" type="line"/>
      <point x="16" y="401" type="line"/>
      <point x="48" y="401" type="line"/>
      <point x="116" y="89" type="line"/>
      <point x="212" y="423" type="line"/>
      <point x="308" y="89" type="line"/>
      <point x="376" y="401" type="line"/>
    </contour>
  </outline>
</glyph>
<glyph name="x" format="1">
  <advance width="287"/>
  <unicode hex="0078"/>
  <outline>
    <contour>
      <point x="274" y="0" type="line"/>
      <point x="238" y="0" type="line"/>
      <point x="144" y="186" type="line"/>
      <point x="48" y="0" type="line"/>
      <point x="13" y="0" type="line"/>
      <point x="126" y="215" type="line"/>
      <point x="29" y="401" type="line"/>
      <point x="65" y="401" type="line"/>
      <point x="144" y="246" type="line"/>
      <point x="224" y="401" type="line"/>
      <point x="259" y="401" type="line"/>
      <point x="161" y="216" type="line"/>
    </contour>
  </outline>
</glyph>
<glyph name="y" format="1">
  <advance width="286"/>
  <unicode hex="0079"/>
  <outline>
    <contour>
      <point x="273" y="401" type="line"/>
      <point x="120" y="-117" type="line" smooth="yes"/>
      <point x="107" y="-161"/>
      <point x="83" y="-179"/>
      <point x="57" y="-179" type="curve" smooth="yes"/>
      <point x="43" y="-179"/>
      <point x="32" y="-177"/>
      <point x="24" y="-174" type="curve"/>
      <point x="24" y="-142" type="line"/>
      <point x="34" y="-146"/>
      <point x="43" y="-148"/>
      <point x="57" y="-148" type="curve" smooth="yes"/>
      <point x="71" y="-148"/>
      <point x="83" y="-138"/>
      <point x="94" y="-103" type="curve" smooth="yes"/>
      <point x="129" y="11" type="line"/>
      <point x="13" y="401" type="line"/>
      <point x="46" y="401" type="line"/>
      <point x="145" y="64" type="line"/>
      <point x="240" y="401" type="line"/>
    </contour>
  </outline>
</glyph>
<glyph name="z" format="1">
  <advance width="258"/>
  <unicode hex="007A"/>
  <outline>
    <contour>
      <point x="239" y="401" type="line"/>
      <point x="61" y="28" type="line"/>
      <point x="230" y="28" type="line"/>
      <point x="230" y="0" type="line"/>
      <point x="14" y="0" type="line"/>
      <point x="192" y="373" type="line"/>
      <point x="39" y="373" type="line"/>
      <point x="39" y="401" type="line"/>
    </contour>
  </outline>
</glyph>
<glyph name="braceleft" format="1">
  <advance width="196"/>
  <unicode hex="007B"/>
  <outline>
    <contour>
      <point x="182" y="-178" type="line"/>
      <point x="98" y="-129"/>
      <point x="85" y="-78"/>
      <point x="85" y="89" type="curve" smooth="yes"/>
      <point x="85" y="200"/>
      <point x="83" y="269"/>
      <point x="25" y="269" type="curve"/>
      <point x="25" y="303" type="line"/>
      <point x="83" y="303"/>
      <point x="85" y="370"/>
      <point x="85" y="482" type="curve" smooth="yes"/>
      <point x="85" y="648"/>
      <point x="98" y="700"/>
      <point x="182" y="749" type="curve"/>
      <point x="182" y="716" type="line"/>
      <point x="124" y="670"/>
      <point x="120" y="626"/>
      <point x="120" y="496" type="curve" smooth="yes"/>
      <point x="120" y="377"/>
      <point x="116" y="306"/>
      <point x="66" y="286" type="curve"/>
      <point x="116" y="265"/>
      <point x="120" y="194"/>
      <point x="120" y="75" type="curve" smooth="yes"/>
      <point x="120" y="-56"/>
      <point x="124" y="-99"/>
      <point x="182" y="-145" type="curve"/>
    </contour>
  </outline>
</glyph>
<glyph name="bar" format="1">
  <advance width="174"/>
  <unicode hex="007C"/>
  <outline>
    <contour>
      <point x="103" y="-179" type="line"/>
      <point x="71" y="-179" type="line"/>
      <point x="71" y="730" type="line"/>
      <point x="103" y="730" type="line"/>
    </contour>
  </outline>
</glyph>
<glyph name="braceright" format="1">
  <advance width="196"/>
  <unicode hex="007D"/>
  <outline>
    <contour>
      <point x="171" y="269" type="line"/>
      <point x="113" y="269"/>
      <point x="111" y="200"/>
      <point x="111" y="89" type="curve" smooth="yes"/>
      <point x="111" y="-78"/>
      <point x="98" y="-129"/>
      <point x="14" y="-178" type="curve"/>
      <point x="14" y="-145" type="line"/>
      <point x="72" y="-99"/>
      <point x="76" y="-56"/>
      <point x="76" y="75" type="curve" smooth="yes"/>
      <point x="76" y="194"/>
      <point x="80" y="265"/>
      <point x="130" y="286" type="curve"/>
      <point x="80" y="306"/>
      <point x="76" y="377"/>
      <point x="76" y="496" type="curve" smooth="yes"/>
      <point x="76" y="626"/>
      <point x="72" y="670"/>
      <point x="14" y="716" type="curve"/>
      <point x="14" y="749" type="line"/>
      <point x="98" y="700"/>
      <point x="111" y="648"/>
      <point x="111" y="482" type="curve" smooth="yes"/>
      <point x="111" y="370"/>
      <point x="113" y="303"/>
      <point x="171" y="303" type="curve"/>
    </contour>
  </outline>
</glyph>
<glyph name="asciitilde" format="1">
  <advance width="458"/>
  <unicode hex="007E"/>
  <outline>
    <contour>
      <point x="395" y="431" type="line"/>
      <point x="388" y="332"/>
      <point x="352" y="299"/>
      <point x="306" y="299" type="curve" smooth="yes"/>
      <point x="269" y="299"/>
      <point x="241" y="325"/>
      <point x="214" y="350" type="curve" smooth="yes"/>
      <point x="189" y="374"/>
      <point x="166" y="398"/>
      <point x="138" y="398" type="curve" smooth="yes"/>
      <point x="101" y="398"/>
      <point x="90" y="360"/>
      <point x="86" y="304" type="curve"/>
      <point x="48" y="304" type="line"/>
      <point x="52" y="381"/>
      <point x="75" y="433"/>
      <point x="140" y="433" type="curve" smooth="yes"/>
      <point x="177" y="433"/>
      <point x="205" y="407"/>
      <point x="232" y="381" type="curve" smooth="yes"/>
      <point x="257" y="357"/>
      <point x="280" y="334"/>
      <point x="307" y="334" type="curve" smooth="yes"/>
      <point x="331" y="334"/>
      <point x="353" y="359"/>
      <point x="357" y="431" type="curve"/>
    </contour>
  </outline>
</glyph>
<glyph name="exclamdown" format="1">
  <advance width="167"/>
  <unicode hex="00A1"/>
  <outline>
    <contour>
      <point x="102" y="660" type="line"/>
      <point x="65" y="660" type="line"/>
      <point x="65" y="730" type="line"/>
      <point x="102" y="730" type="line"/>
    </contour>
    <contour>
      <point x="101" y="0" type="line"/>
      <point x="66" y="0" type="line"/>
      <point x="66" y="453" type="line"/>
      <point x="76" y="614" type="line"/>
      <point x="91" y="614" type="line"/>
      <point x="101" y="453" type="line"/>
    </contour>
  </outline>
</glyph>
<glyph name="cent" format="1">
  <advance width="285"/>
  <unicode hex="00A2"/>
  <outline>
    <contour>
      <point x="259" y="72" type="line"/>
      <point x="237" y="34"/>
      <point x="210" y="4"/>
      <point x="168" y="-1" type="curve"/>
      <point x="168" y="-79" type="line"/>
      <point x="136" y="-79" type="line"/>
      <point x="136" y="0" type="line"/>
      <point x="64" y="13"/>
      <point x="27" y="100"/>
      <point x="27" y="200" type="curve" smooth="yes"/>
      <point x="27" y="299"/>
      <point x="63" y="388"/>
      <point x="135" y="401" type="curve"/>
      <point x="135" y="465" type="line"/>
      <point x="167" y="465" type="line"/>
      <point x="167" y="402" type="line"/>
      <point x="209" y="397"/>
      <point x="234" y="363"/>
      <point x="251" y="331" type="curve"/>
      <point x="226" y="312" type="line"/>
      <point x="208" y="348"/>
      <point x="188" y="373"/>
      <point x="155" y="373" type="curve" smooth="yes"/>
      <point x="89" y="373"/>
      <point x="61" y="288"/>
      <point x="61" y="200" type="curve" smooth="yes"/>
      <point x="61" y="112"/>
      <point x="89" y="28"/>
      <point x="155" y="28" type="curve" smooth="yes"/>
      <point x="192" y="28"/>
      <point x="214" y="53"/>
      <point x="233" y="90" type="curve"/>
    </contour>
  </outline>
</glyph>
<glyph name="sterling" format="1">
  <advance width="347"/>
  <unicode hex="00A3"/>
  <outline>
    <contour>
      <point x="327" y="147" type="line"/>
      <point x="327" y="55"/>
      <point x="316" y="-12"/>
      <point x="252" y="-12" type="curve" smooth="yes"/>
      <point x="219" y="-12"/>
      <point x="191" y="16"/>
      <point x="167" y="51" type="curve"/>
      <point x="149" y="10"/>
      <point x="124" y="-12"/>
      <point x="92" y="-12" type="curve" smooth="yes"/>
      <point x="52" y="-12"/>
      <point x="20" y="17"/>
      <point x="20" y="68" type="curve" smooth="yes"/>
      <point x="20" y="117"/>
      <point x="50" y="150"/>
      <point x="90" y="150" type="curve" smooth="yes"/>
      <point x="117" y="150"/>
      <point x="135" y="136"/>
      <point x="155" y="116" type="curve"/>
      <point x="158" y="136"/>
      <point x="159" y="154"/>
      <point x="159" y="177" type="curve" smooth="yes"/>
      <point x="159" y="241"/>
      <point x="137" y="289"/>
      <point x="120" y="327" type="curve"/>
      <point x="53" y="327" type="line"/>
      <point x="53" y="352" type="line"/>
      <point x="107" y="352" type="line"/>
      <point x="73" y="422"/>
      <point x="46" y="486"/>
      <point x="46" y="561" type="curve" smooth="yes"/>
      <point x="46" y="672"/>
      <point x="101" y="742"/>
      <point x="181" y="742" type="curve" smooth="yes"/>
      <point x="267" y="742"/>
      <point x="307" y="670"/>
      <point x="310" y="563" type="curve"/>
      <point x="274" y="563" type="line"/>
      <point x="270" y="643"/>
      <point x="246" y="708"/>
      <point x="181" y="708" type="curve" smooth="yes"/>
      <point x="123" y="708"/>
      <point x="84" y="653"/>
      <point x="84" y="563" type="curve" smooth="yes"/>
      <point x="84" y="491"/>
      <point x="113" y="431"/>
      <point x="148" y="352" type="curve"/>
      <point x="264" y="352" type="line"/>
      <point x="264" y="327" type="line"/>
      <point x="159" y="327" type="line"/>
      <point x="173" y="292"/>
      <point x="193" y="241"/>
      <point x="193" y="182" type="curve" smooth="yes"/>
      <point x="193" y="146"/>
      <point x="190" y="114"/>
      <point x="182" y="86" type="curve"/>
      <point x="203" y="59"/>
      <point x="225" y="22"/>
      <point x="251" y="22" type="curve" smooth="yes"/>
      <point x="290" y="22"/>
      <point x="292" y="77"/>
      <point x="293" y="147" type="curve"/>
    </contour>
    <contour>
      <point x="146" y="80" type="curve"/>
      <point x="129" y="100"/>
      <point x="111" y="118"/>
      <point x="91" y="118" type="curve" smooth="yes"/>
      <point x="64" y="118"/>
      <point x="51" y="99"/>
      <point x="51" y="68" type="curve" smooth="yes"/>
      <point x="51" y="37"/>
      <point x="69" y="16"/>
      <point x="93" y="16" type="curve" smooth="yes"/>
      <point x="115" y="16"/>
      <point x="133" y="38"/>
    </contour>
  </outline>
</glyph>
<glyph name="yen" format="1">
  <advance width="389"/>
  <unicode hex="00A5"/>
  <outline>
    <contour>
      <point x="373" y="730" type="line"/>
      <point x="210" y="354" type="line"/>
      <point x="210" y="263" type="line"/>
      <point x="325" y="263" type="line"/>
      <point x="325" y="236" type="line"/>
      <point x="210" y="236" type="line"/>
      <point x="210" y="149" type="line"/>
      <point x="325" y="149" type="line"/>
      <point x="325" y="122" type="line"/>
      <point x="210" y="122" type="line"/>
      <point x="210" y="0" type="line"/>
      <point x="172" y="0" type="line"/>
      <point x="172" y="122" type="line"/>
      <point x="58" y="122" type="line"/>
      <point x="58" y="149" type="line"/>
      <point x="172" y="149" type="line"/>
      <point x="172" y="236" type="line"/>
      <point x="58" y="236" type="line"/>
      <point x="58" y="263" type="line"/>
      <point x="172" y="263" type="line"/>
      <point x="172" y="354" type="line"/>
      <point x="8" y="730" type="line"/>
      <point x="47" y="730" type="line"/>
      <point x="185" y="413" type="line" smooth="yes"/>
      <point x="187" y="409"/>
      <point x="192" y="394"/>
      <point x="192" y="394" type="curve"/>
      <point x="192" y="394"/>
      <point x="198" y="410"/>
      <point x="199" y="413" type="curve" smooth="yes"/>
      <point x="335" y="730" type="line"/>
    </contour>
  </outline>
</glyph>
<glyph name="brokenbar" format="1">
  <advance width="132"/>
  <unicode hex="00A6"/>
  <outline>
    <contour>
      <point x="50" y="351" type="line"/>
      <point x="50" y="730" type="line"/>
      <point x="82" y="730" type="line"/>
      <point x="82" y="351" type="line"/>
    </contour>
    <contour>
      <point x="82" y="200" type="line"/>
      <point x="82" y="-179" type="line"/>
      <point x="50" y="-179" type="line"/>
      <point x="50" y="200" type="line"/>
    </contour>
  </outline>
</glyph>
<glyph name="section" format="1">
  <advance width="401"/>
  <unicode hex="00A7"/>
  <outline>
    <contour>
      <point x="378" y="249" type="curve" smooth="yes"/>
      <point x="378" y="174"/>
      <point x="339" y="109"/>
      <point x="291" y="67" type="curve"/>
      <point x="318" y="39"/>
      <point x="332" y="6"/>
      <point x="332" y="-44" type="curve" smooth="yes"/>
      <point x="332" y="-134"/>
      <point x="268" y="-187"/>
      <point x="193" y="-187" type="curve" smooth="yes"/>
      <point x="124" y="-187"/>
      <point x="78" y="-153"/>
      <point x="55" y="-114" type="curve"/>
      <point x="79" y="-89" type="line"/>
      <point x="96" y="-122"/>
      <point x="133" y="-154"/>
      <point x="194" y="-154" type="curve" smooth="yes"/>
      <point x="251" y="-154"/>
      <point x="295" y="-112"/>
      <point x="295" y="-46" type="curve" smooth="yes"/>
      <point x="295" y="46"/>
      <point x="222" y="73"/>
      <point x="141" y="120" type="curve" smooth="yes"/>
      <point x="62" y="166"/>
      <point x="21" y="218"/>
      <point x="21" y="307" type="curve" smooth="yes"/>
      <point x="21" y="373"/>
      <point x="59" y="442"/>
      <point x="109" y="485" type="curve"/>
      <point x="83" y="513"/>
      <point x="68" y="549"/>
      <point x="68" y="598" type="curve" smooth="yes"/>
      <point x="68" y="689"/>
      <point x="132" y="742"/>
      <point x="208" y="742" type="curve" smooth="yes"/>
      <point x="277" y="742"/>
      <point x="314" y="709"/>
      <point x="338" y="667" type="curve"/>
      <point x="315" y="644" type="line"/>
      <point x="297" y="676"/>
      <point x="268" y="709"/>
      <point x="207" y="709" type="curve" smooth="yes"/>
      <point x="150" y="709"/>
      <point x="106" y="666"/>
      <point x="106" y="601" type="curve" smooth="yes"/>
      <point x="106" y="520"/>
      <point x="155" y="489"/>
      <point x="233" y="451" type="curve" smooth="yes"/>
      <point x="312" y="413"/>
      <point x="378" y="365"/>
    </contour>
    <contour>
      <point x="341" y="249" type="curve" smooth="yes"/>
      <point x="341" y="340"/>
      <point x="287" y="380"/>
      <point x="219" y="416" type="curve" smooth="yes"/>
      <point x="190" y="431"/>
      <point x="161" y="445"/>
      <point x="136" y="466" type="curve"/>
      <point x="93" y="430"/>
      <point x="57" y="375"/>
      <point x="57" y="306" type="curve" smooth="yes"/>
      <point x="57" y="224"/>
      <point x="101" y="185"/>
      <point x="158" y="150" type="curve" smooth="yes"/>
      <point x="190" y="131"/>
      <point x="227" y="112"/>
      <point x="264" y="88" type="curve"/>
      <point x="310" y="128"/>
      <point x="341" y="183"/>
    </contour>
  </outline>
</glyph>
<glyph name="dieresis" format="1">
  <advance width="395"/>
  <unicode hex="00A8"/>
  <outline>
    <contour>
      <point x="270" y="485" type="line"/>
      <point x="236" y="485" type="line"/>
      <point x="236" y="574" type="line"/>
      <point x="270" y="574" type="line"/>
    </contour>
    <contour>
      <point x="158" y="485" type="line"/>
      <point x="124" y="485" type="line"/>
      <point x="124" y="574" type="line"/>
      <point x="158" y="574" type="line"/>
    </contour>
  </outline>
</glyph>
<glyph name="ordfeminine" format="1">
  <advance width="296"/>
  <unicode hex="00AA"/>
  <outline>
    <contour>
      <point x="248" y="400" type="line"/>
      <point x="218" y="400" type="line"/>
      <point x="218" y="430" type="line"/>
      <point x="193" y="405"/>
      <point x="164" y="391"/>
      <point x="133" y="391" type="curve" smooth="yes"/>
      <point x="85" y="391"/>
      <point x="40" y="424"/>
      <point x="40" y="496" type="curve" smooth="yes"/>
      <point x="40" y="572"/>
      <point x="108" y="616"/>
      <point x="190" y="616" type="curve" smooth="yes"/>
      <point x="218" y="616" type="line"/>
      <point x="218" y="637" type="line" smooth="yes"/>
      <point x="218" y="691"/>
      <point x="200" y="719"/>
      <point x="154" y="719" type="curve" smooth="yes"/>
      <point x="116" y="719"/>
      <point x="88" y="703"/>
      <point x="69" y="687" type="curve"/>
      <point x="54" y="712" type="line"/>
      <point x="79" y="729"/>
      <point x="108" y="747"/>
      <point x="155" y="747" type="curve" smooth="yes"/>
      <point x="220" y="747"/>
      <point x="248" y="705"/>
      <point x="248" y="640" type="curve" smooth="yes"/>
    </contour>
    <contour>
      <point x="256" y="308" type="line"/>
      <point x="40" y="308" type="line"/>
      <point x="40" y="336" type="line"/>
      <point x="256" y="336" type="line"/>
    </contour>
    <contour>
      <point x="218" y="459" type="curve"/>
      <point x="218" y="589" type="line"/>
      <point x="192" y="589" type="line" smooth="yes"/>
      <point x="118" y="589"/>
      <point x="70" y="552"/>
      <point x="70" y="498" type="curve" smooth="yes"/>
      <point x="70" y="443"/>
      <point x="100" y="419"/>
      <point x="136" y="419" type="curve" smooth="yes"/>
      <point x="158" y="419"/>
      <point x="182" y="424"/>
    </contour>
  </outline>
</glyph>
<glyph name="guillemotleft" format="1">
  <advance width="217"/>
  <unicode hex="00AB"/>
  <outline>
    <contour>
      <point x="197" y="71" type="line"/>
      <point x="113" y="185" type="line"/>
      <point x="113" y="222" type="line"/>
      <point x="200" y="336" type="line"/>
      <point x="200" y="294" type="line"/>
      <point x="137" y="203" type="line"/>
      <point x="197" y="115" type="line"/>
    </contour>
    <contour>
      <point x="98" y="71" type="line"/>
      <point x="15" y="185" type="line"/>
      <point x="15" y="222" type="line"/>
      <point x="101" y="336" type="line"/>
      <point x="101" y="294" type="line"/>
      <point x="39" y="203" type="line"/>
      <point x="98" y="115" type="line"/>
    </contour>
  </outline>
</glyph>
<glyph name="degree" format="1">
  <advance width="306"/>
  <unicode hex="00B0"/>
  <outline>
    <contour>
      <point x="281" y="614" type="curve" smooth="yes"/>
      <point x="281" y="542"/>
      <point x="225" y="486"/>
      <point x="153" y="486" type="curve" smooth="yes"/>
      <point x="81" y="486"/>
      <point x="25" y="542"/>
      <point x="25" y="614" type="curve" smooth="yes"/>
      <point x="25" y="686"/>
      <point x="81" y="742"/>
      <point x="153" y="742" type="curve" smooth="yes"/>
      <point x="225" y="742"/>
      <point x="281" y="686"/>
    </contour>
    <contour>
      <point x="247" y="614" type="curve" smooth="yes"/>
      <point x="247" y="669"/>
      <point x="208" y="714"/>
      <point x="153" y="714" type="curve" smooth="yes"/>
      <point x="98" y="714"/>
      <point x="59" y="669"/>
      <point x="59" y="614" type="curve" smooth="yes"/>
      <point x="59" y="559"/>
      <point x="98" y="514"/>
      <point x="153" y="514" type="curve" smooth="yes"/>
      <point x="208" y="514"/>
      <point x="247" y="559"/>
    </contour>
  </outline>
</glyph>
<glyph name="twosuperior" format="1">
  <advance width="261"/>
  <unicode hex="00B2"/>
  <outline>
    <contour>
      <point x="49" y="352" type="line"/>
      <point x="152" y="588" type="line" smooth="yes"/>
      <point x="161" y="609"/>
      <point x="171" y="633"/>
      <point x="171" y="662" type="curve" smooth="yes"/>
      <point x="171" y="683"/>
      <point x="158" y="713"/>
      <point x="128" y="713" type="curve" smooth="yes"/>
      <point x="100" y="713"/>
      <point x="84" y="688"/>
      <point x="84" y="663" type="curve" smooth="yes"/>
      <point x="84" y="647" type="line"/>
      <point x="55" y="647" type="line"/>
      <point x="55" y="661" type="line" smooth="yes"/>
      <point x="55" y="700"/>
      <point x="79" y="740"/>
      <point x="128" y="740" type="curve" smooth="yes"/>
      <point x="181" y="740"/>
      <point x="200" y="695"/>
      <point x="200" y="663" type="curve" smooth="yes"/>
      <point x="200" y="638"/>
      <point x="195" y="614"/>
      <point x="184" y="590" type="curve" smooth="yes"/>
      <point x="92" y="380" type="line"/>
      <point x="201" y="380" type="line"/>
      <point x="201" y="352" type="line"/>
    </contour>
  </outline>
</glyph>
<glyph name="paragraph" format="1">
  <advance width="460"/>
  <unicode hex="00B6"/>
  <outline>
    <contour>
      <point x="396" y="-179" type="line"/>
      <point x="363" y="-179" type="line"/>
      <point x="363" y="700" type="line"/>
      <point x="308" y="700" type="line"/>
      <point x="308" y="-179" type="line"/>
      <point x="275" y="-179" type="line"/>
      <point x="275" y="247" type="line"/>
      <point x="258" y="247" type="line" smooth="yes"/>
      <point x="122" y="247"/>
      <point x="27" y="353"/>
      <point x="27" y="487" type="curve" smooth="yes"/>
      <point x="27" y="629"/>
      <point x="118" y="730"/>
      <point x="266" y="730" type="curve" smooth="yes"/>
      <point x="396" y="730" type="line"/>
    </contour>
    <contour>
      <point x="275" y="277" type="line"/>
      <point x="275" y="700" type="line"/>
      <point x="259" y="700" type="line" smooth="yes"/>
      <point x="136" y="700"/>
      <point x="65" y="609"/>
      <point x="65" y="490" type="curve" smooth="yes"/>
      <point x="65" y="367"/>
      <point x="139" y="277"/>
      <point x="262" y="277" type="curve" smooth="yes"/>
    </contour>
  </outline>
</glyph>
<glyph name="periodcentered" format="1">
  <advance width="122"/>
  <unicode hex="00B7"/>
  <outline>
    <contour>
      <point x="79" y="191" type="line"/>
      <point x="43" y="191" type="line"/>
      <point x="43" y="261" type="line"/>
      <point x="79" y="261" type="line"/>
    </contour>
  </outline>
</glyph>
<glyph name="cedilla" format="1">
  <advance width="395"/>
  <unicode hex="00B8"/>
  <outline>
    <contour>
      <point x="266" y="-103" type="curve" smooth="yes"/>
      <point x="266" y="-154"/>
      <point x="231" y="-174"/>
      <point x="195" y="-174" type="curve" smooth="yes"/>
      <point x="170" y="-174"/>
      <point x="146" y="-160"/>
      <point x="127" y="-139" type="curve"/>
      <point x="142" y="-123" type="line"/>
      <point x="157" y="-140"/>
      <point x="174" y="-151"/>
      <point x="194" y="-151" type="curve" smooth="yes"/>
      <point x="218" y="-151"/>
      <point x="237" y="-137"/>
      <point x="237" y="-105" type="curve" smooth="yes"/>
      <point x="237" y="-82"/>
      <point x="224" y="-67"/>
      <point x="200" y="-67" type="curve" smooth="yes"/>
      <point x="187" y="-67"/>
      <point x="175" y="-70"/>
      <point x="164" y="-73" type="curve"/>
      <point x="157" y="-61" type="line"/>
      <point x="191" y="9" type="line"/>
      <point x="218" y="9" type="line"/>
      <point x="191" y="-48" type="line"/>
      <point x="194" y="-47"/>
      <point x="201" y="-45"/>
      <point x="209" y="-45" type="curve" smooth="yes"/>
      <point x="235" y="-45"/>
      <point x="266" y="-61"/>
    </contour>
  </outline>
</glyph>
<glyph name="ordmasculine" format="1">
  <advance width="307"/>
  <unicode hex="00BA"/>
  <outline>
    <contour>
      <point x="259" y="566" type="curve" smooth="yes"/>
      <point x="259" y="471"/>
      <point x="232" y="391"/>
      <point x="152" y="391" type="curve" smooth="yes"/>
      <point x="73" y="391"/>
      <point x="47" y="471"/>
      <point x="47" y="566" type="curve" smooth="yes"/>
      <point x="47" y="661"/>
      <point x="73" y="743"/>
      <point x="152" y="743" type="curve" smooth="yes"/>
      <point x="232" y="743"/>
      <point x="259" y="661"/>
    </contour>
    <contour>
      <point x="255" y="308" type="line"/>
      <point x="44" y="308" type="line"/>
      <point x="44" y="336" type="line"/>
      <point x="255" y="336" type="line"/>
    </contour>
    <contour>
      <point x="228" y="566" type="curve" smooth="yes"/>
      <point x="228" y="644"/>
      <point x="213" y="715"/>
      <point x="152" y="715" type="curve" smooth="yes"/>
      <point x="92" y="715"/>
      <point x="77" y="644"/>
      <point x="77" y="566" type="curve" smooth="yes"/>
      <point x="77" y="487"/>
      <point x="92" y="419"/>
      <point x="152" y="419" type="curve" smooth="yes"/>
      <point x="212" y="419"/>
      <point x="228" y="487"/>
    </contour>
  </outline>
</glyph>
<glyph name="guillemotright" format="1">
  <advance width="217"/>
  <unicode hex="00BB"/>
  <outline>
    <contour>
      <point x="206" y="185" type="line"/>
      <point x="122" y="71" type="line"/>
      <point x="122" y="115" type="line"/>
      <point x="182" y="203" type="line"/>
      <point x="119" y="294" type="line"/>
      <point x="119" y="336" type="line"/>
      <point x="206" y="222" type="line"/>
    </contour>
    <contour>
      <point x="108" y="185" type="line"/>
      <point x="24" y="71" type="line"/>
      <point x="24" y="115" type="line"/>
      <point x="84" y="203" type="line"/>
      <point x="21" y="294" type="line"/>
      <point x="21" y="336" type="line"/>
      <point x="108" y="222" type="line"/>
    </contour>
  </outline>
</glyph>
<glyph name="onequarter" format="1">
  <advance width="513"/>
  <unicode hex="00BC"/>
  <outline>
    <contour>
      <point x="88" y="342" type="line"/>
      <point x="88" y="672" type="line"/>
      <point x="84" y="661"/>
      <point x="71" y="648"/>
      <point x="57" y="642" type="curve"/>
      <point x="57" y="671" type="line"/>
      <point x="74" y="678"/>
      <point x="88" y="703"/>
      <point x="92" y="730" type="curve"/>
      <point x="116" y="730" type="line"/>
      <point x="116" y="342" type="line"/>
    </contour>
    <contour>
      <point x="405" y="730" type="line"/>
      <point x="95" y="0" type="line"/>
      <point x="65" y="0" type="line"/>
      <point x="374" y="730" type="line"/>
    </contour>
    <contour>
      <point x="407" y="101" type="line"/>
      <point x="407" y="0" type="line"/>
      <point x="380" y="0" type="line"/>
      <point x="380" y="101" type="line"/>
      <point x="270" y="101" type="line"/>
      <point x="270" y="117" type="line"/>
      <point x="387" y="385" type="line"/>
      <point x="407" y="385" type="line"/>
      <point x="407" y="126" type="line"/>
      <point x="438" y="126" type="line"/>
      <point x="438" y="101" type="line"/>
    </contour>
    <contour>
      <point x="380" y="305" type="line"/>
      <point x="302" y="126" type="line"/>
      <point x="380" y="126" type="line"/>
    </contour>
  </outline>
</glyph>
<glyph name="onehalf" format="1">
  <advance width="513"/>
  <unicode hex="00BD"/>
  <outline>
    <contour>
      <point x="88" y="342" type="line"/>
      <point x="88" y="672" type="line"/>
      <point x="84" y="661"/>
      <point x="71" y="648"/>
      <point x="57" y="642" type="curve"/>
      <point x="57" y="671" type="line"/>
      <point x="74" y="678"/>
      <point x="88" y="703"/>
      <point x="92" y="730" type="curve"/>
      <point x="116" y="730" type="line"/>
      <point x="116" y="342" type="line"/>
    </contour>
    <contour>
      <point x="405" y="730" type="line"/>
      <point x="95" y="0" type="line"/>
      <point x="65" y="0" type="line"/>
      <point x="374" y="730" type="line"/>
    </contour>
    <contour>
      <point x="313" y="0" type="line"/>
      <point x="416" y="236" type="line" smooth="yes"/>
      <point x="425" y="257"/>
      <point x="435" y="281"/>
      <point x="435" y="310" type="curve" smooth="yes"/>
      <point x="435" y="331"/>
      <point x="422" y="361"/>
      <point x="392" y="361" type="curve" smooth="yes"/>
      <point x="364" y="361"/>
      <point x="348" y="336"/>
      <point x="348" y="311" type="curve" smooth="yes"/>
      <point x="348" y="295" type="line"/>
      <point x="319" y="295" type="line"/>
      <point x="319" y="309" type="line" smooth="yes"/>
      <point x="319" y="348"/>
      <point x="343" y="388"/>
      <point x="392" y="388" type="curve" smooth="yes"/>
      <point x="445" y="388"/>
      <point x="464" y="343"/>
      <point x="464" y="311" type="curve" smooth="yes"/>
      <point x="464" y="286"/>
      <point x="459" y="262"/>
      <point x="448" y="238" type="curve" smooth="yes"/>
      <point x="356" y="28" type="line"/>
      <point x="465" y="28" type="line"/>
      <point x="465" y="0" type="line"/>
    </contour>
  </outline>
</glyph>
<glyph name="questiondown" format="1">
  <advance width="290"/>
  <unicode hex="00BF"/>
  <outline>
    <contour>
      <point x="173" y="660" type="line"/>
      <point x="136" y="660" type="line"/>
      <point x="136" y="730" type="line"/>
      <point x="173" y="730" type="line"/>
    </contour>
    <contour>
      <point x="265" y="92" type="line"/>
      <point x="250" y="31"/>
      <point x="209" y="-12"/>
      <point x="147" y="-12" type="curve" smooth="yes"/>
      <point x="77" y="-12"/>
      <point x="34" y="46"/>
      <point x="34" y="123" type="curve" smooth="yes"/>
      <point x="34" y="182"/>
      <point x="55" y="241"/>
      <point x="91" y="318" type="curve" smooth="yes"/>
      <point x="116" y="371"/>
      <point x="140" y="451"/>
      <point x="140" y="528" type="curve" smooth="yes"/>
      <point x="140" y="607" type="line"/>
      <point x="169" y="607" type="line"/>
      <point x="169" y="533" type="line" smooth="yes"/>
      <point x="169" y="452"/>
      <point x="152" y="372"/>
      <point x="126" y="316" type="curve" smooth="yes"/>
      <point x="88" y="234"/>
      <point x="70" y="178"/>
      <point x="70" y="129" type="curve" smooth="yes"/>
      <point x="70" y="65"/>
      <point x="104" y="20"/>
      <point x="147" y="20" type="curve" smooth="yes"/>
      <point x="194" y="20"/>
      <point x="220" y="48"/>
      <point x="236" y="103" type="curve"/>
    </contour>
  </outline>
</glyph>
<glyph name="Adieresis" format="1">
  <advance width="486"/>
  <unicode hex="00C4"/>
  <outline>
    <contour>
      <point x="376" y="653" type="line"/>
      <point x="342" y="653" type="line"/>
      <point x="342" y="742" type="line"/>
      <point x="376" y="742" type="line"/>
    </contour>
    <contour>
      <point x="104" y="653" type="line"/>
      <point x="70" y="653" type="line"/>
      <point x="70" y="742" type="line"/>
      <point x="104" y="742" type="line"/>
    </contour>
    <contour>
      <point x="433" y="0" type="line"/>
      <point x="397" y="0" type="line"/>
      <point x="349" y="179" type="line"/>
      <point x="101" y="179" type="line"/>
      <point x="53" y="0" type="line"/>
      <point x="17" y="0" type="line"/>
      <point x="217" y="743" type="line"/>
      <point x="234" y="743" type="line"/>
    </contour>
    <contour>
      <point x="340" y="211" type="line"/>
      <point x="224" y="645" type="line"/>
      <point x="109" y="211" type="line"/>
    </contour>
  </outline>
</glyph>
<glyph name="Aring" format="1">
  <advance width="486"/>
  <unicode hex="00C5"/>
  <outline>
    <contour>
      <point x="240" y="720" type="curve"/>
      <point x="433" y="0" type="line"/>
      <point x="397" y="0" type="line"/>
      <point x="349" y="179" type="line"/>
      <point x="101" y="179" type="line"/>
      <point x="53" y="0" type="line"/>
      <point x="17" y="0" type="line"/>
      <point x="211" y="720" type="line"/>
      <point x="177" y="728"/>
      <point x="156" y="765"/>
      <point x="156" y="813" type="curve" smooth="yes"/>
      <point x="156" y="867"/>
      <point x="183" y="907"/>
      <point x="225" y="907" type="curve" smooth="yes"/>
      <point x="266" y="907"/>
      <point x="293" y="867"/>
      <point x="293" y="813" type="curve" smooth="yes"/>
      <point x="293" y="766"/>
      <point x="273" y="729"/>
    </contour>
    <contour>
      <point x="266" y="813" type="curve" smooth="yes"/>
      <point x="266" y="850"/>
      <point x="251" y="880"/>
      <point x="225" y="880" type="curve" smooth="yes"/>
      <point x="199" y="880"/>
      <point x="183" y="850"/>
      <point x="183" y="813" type="curve" smooth="yes"/>
      <point x="183" y="776"/>
      <point x="199" y="745"/>
      <point x="225" y="745" type="curve" smooth="yes"/>
      <point x="251" y="745"/>
      <point x="266" y="776"/>
    </contour>
    <contour>
      <point x="340" y="211" type="line"/>
      <point x="224" y="647" type="line"/>
      <point x="109" y="211" type="line"/>
    </contour>
  </outline>
</glyph>
<glyph name="AE" format="1">
  <advance width="612"/>
  <unicode hex="00C6"/>
  <outline>
    <contour>
      <point x="583" y="0" type="line"/>
      <point x="328" y="0" type="line"/>
      <point x="328" y="178" type="line"/>
      <point x="124" y="178" type="line"/>
      <point x="54" y="0" type="line"/>
      <point x="16" y="0" type="line"/>
      <point x="308" y="730" type="line"/>
      <point x="574" y="730" type="line"/>
      <point x="574" y="696" type="line"/>
      <point x="365" y="696" type="line"/>
      <point x="365" y="385" type="line"/>
      <point x="550" y="385" type="line"/>
      <point x="550" y="350" type="line"/>
      <point x="365" y="350" type="line"/>
      <point x="365" y="34" type="line"/>
      <point x="583" y="34" type="line"/>
    </contour>
    <contour>
      <point x="328" y="211" type="line"/>
      <point x="328" y="692" type="line"/>
      <point x="137" y="211" type="line"/>
    </contour>
  </outline>
</glyph>
<glyph name="Ccedilla" format="1">
  <advance width="373"/>
  <unicode hex="00C7"/>
  <outline>
    <contour>
      <point x="210" y="-10" type="line"/>
      <point x="95" y="7"/>
      <point x="35" y="169"/>
      <point x="35" y="365" type="curve" smooth="yes"/>
      <point x="35" y="573"/>
      <point x="100" y="742"/>
      <point x="231" y="742" type="curve" smooth="yes"/>
      <point x="289" y="742"/>
      <point x="327" y="706"/>
      <point x="352" y="674" type="curve"/>
      <point x="329" y="650" type="line"/>
      <point x="304" y="684"/>
      <point x="278" y="710"/>
      <point x="229" y="710" type="curve" smooth="yes"/>
      <point x="119" y="710"/>
      <point x="71" y="549"/>
      <point x="71" y="365" type="curve" smooth="yes"/>
      <point x="71" y="180"/>
      <point x="121" y="20"/>
      <point x="235" y="20" type="curve" smooth="yes"/>
      <point x="279" y="20"/>
      <point x="310" y="45"/>
      <point x="335" y="79" type="curve"/>
      <point x="357" y="56" type="line"/>
      <point x="333" y="25"/>
      <point x="293" y="-10"/>
      <point x="237" y="-12" type="curve"/>
      <point x="220" y="-48" type="line"/>
      <point x="223" y="-47"/>
      <point x="230" y="-45"/>
      <point x="238" y="-45" type="curve" smooth="yes"/>
      <point x="264" y="-45"/>
      <point x="295" y="-61"/>
      <point x="295" y="-103" type="curve" smooth="yes"/>
      <point x="295" y="-154"/>
      <point x="260" y="-174"/>
      <point x="224" y="-174" type="curve" smooth="yes"/>
      <point x="199" y="-174"/>
      <point x="175" y="-160"/>
      <point x="156" y="-139" type="curve"/>
      <point x="171" y="-123" type="line"/>
      <point x="186" y="-140"/>
      <point x="203" y="-151"/>
      <point x="223" y="-151" type="curve" smooth="yes"/>
      <point x="247" y="-151"/>
      <point x="266" y="-137"/>
      <point x="266" y="-105" type="curve" smooth="yes"/>
      <point x="266" y="-82"/>
      <point x="253" y="-67"/>
      <point x="229" y="-67" type="curve" smooth="yes"/>
      <point x="216" y="-67"/>
      <point x="204" y="-70"/>
      <point x="193" y="-73" type="curve"/>
      <point x="186" y="-61" type="line"/>
    </contour>
  </outline>
</glyph>
<glyph name="Eth" format="1">
  <advance width="433"/>
  <unicode hex="00D0"/>
  <outline>
    <contour>
      <point x="397" y="372" type="curve" smooth="yes"/>
      <point x="397" y="143"/>
      <point x="302" y="0"/>
      <point x="132" y="0" type="curve" smooth="yes"/>
      <point x="65" y="0" type="line"/>
      <point x="65" y="358" type="line"/>
      <point x="20" y="358" type="line"/>
      <point x="20" y="393" type="line"/>
      <point x="65" y="393" type="line"/>
      <point x="65" y="730" type="line"/>
      <point x="135" y="730" type="line" smooth="yes"/>
      <point x="319" y="730"/>
      <point x="397" y="567"/>
    </contour>
    <contour>
      <point x="359" y="372" type="curve" smooth="yes"/>
      <point x="359" y="548"/>
      <point x="293" y="696"/>
      <point x="137" y="696" type="curve" smooth="yes"/>
      <point x="101" y="696" type="line"/>
      <point x="101" y="393" type="line"/>
      <point x="187" y="393" type="line"/>
      <point x="187" y="358" type="line"/>
      <point x="101" y="358" type="line"/>
      <point x="101" y="34" type="line"/>
      <point x="136" y="34" type="line" smooth="yes"/>
      <point x="288" y="34"/>
      <point x="359" y="176"/>
    </contour>
  </outline>
</glyph>
<glyph name="Odieresis" format="1">
  <advance width="468"/>
  <unicode hex="00D6"/>
  <outline>
    <contour>
      <point x="438" y="653" type="line"/>
      <point x="404" y="653" type="line"/>
      <point x="404" y="742" type="line"/>
      <point x="438" y="742" type="line"/>
    </contour>
    <contour>
      <point x="64" y="653" type="line"/>
      <point x="30" y="653" type="line"/>
      <point x="30" y="742" type="line"/>
      <point x="64" y="742" type="line"/>
    </contour>
    <contour>
      <point x="433" y="365" type="curve" smooth="yes"/>
      <point x="433" y="157"/>
      <point x="368" y="-12"/>
      <point x="234" y="-12" type="curve" smooth="yes"/>
      <point x="100" y="-12"/>
      <point x="35" y="157"/>
      <point x="35" y="365" type="curve" smooth="yes"/>
      <point x="35" y="573"/>
      <point x="100" y="742"/>
      <point x="234" y="742" type="curve" smooth="yes"/>
      <point x="368" y="742"/>
      <point x="433" y="573"/>
    </contour>
    <contour>
      <point x="397" y="365" type="curve" smooth="yes"/>
      <point x="397" y="550"/>
      <point x="349" y="710"/>
      <point x="234" y="710" type="curve" smooth="yes"/>
      <point x="119" y="710"/>
      <point x="71" y="550"/>
      <point x="71" y="365" type="curve" smooth="yes"/>
      <point x="71" y="180"/>
      <point x="119" y="20"/>
      <point x="234" y="20" type="curve" smooth="yes"/>
      <point x="349" y="20"/>
      <point x="397" y="180"/>
    </contour>
  </outline>
</glyph>
<glyph name="multiply" format="1">
  <advance width="295"/>
  <unicode hex="00D7"/>
  <outline>
    <contour>
      <point x="247" y="185" type="line"/>
      <point x="224" y="171" type="line"/>
      <point x="147" y="304" type="line"/>
      <point x="68" y="171" type="line"/>
      <point x="46" y="186" type="line"/>
      <point x="131" y="330" type="line"/>
      <point x="47" y="477" type="line"/>
      <point x="70" y="492" type="line"/>
      <point x="147" y="358" type="line"/>
      <point x="226" y="492" type="line"/>
      <point x="249" y="477" type="line"/>
      <point x="163" y="331" type="line"/>
    </contour>
  </outline>
</glyph>
<glyph name="Oslash" format="1">
  <advance width="465"/>
  <unicode hex="00D8"/>
  <outline>
    <contour>
      <point x="427" y="742" type="line"/>
      <point x="380" y="642" type="line"/>
      <point x="416" y="573"/>
      <point x="430" y="474"/>
      <point x="430" y="364" type="curve" smooth="yes"/>
      <point x="430" y="159"/>
      <point x="377" y="-12"/>
      <point x="234" y="-12" type="curve" smooth="yes"/>
      <point x="178" y="-12"/>
      <point x="136" y="13"/>
      <point x="106" y="56" type="curve"/>
      <point x="69" y="-23" type="line"/>
      <point x="45" y="-11" type="line"/>
      <point x="89" y="83" type="line"/>
      <point x="53" y="152"/>
      <point x="38" y="252"/>
      <point x="38" y="364" type="curve" smooth="yes"/>
      <point x="38" y="570"/>
      <point x="89" y="742"/>
      <point x="234" y="742" type="curve" smooth="yes"/>
      <point x="290" y="742"/>
      <point x="333" y="715"/>
      <point x="363" y="669" type="curve"/>
      <point x="403" y="755" type="line"/>
    </contour>
    <contour>
      <point x="343" y="633" type="line"/>
      <point x="318" y="679"/>
      <point x="283" y="707"/>
      <point x="234" y="707" type="curve" smooth="yes"/>
      <point x="115" y="707"/>
      <point x="76" y="550"/>
      <point x="76" y="364" type="curve" smooth="yes"/>
      <point x="76" y="270"/>
      <point x="87" y="181"/>
      <point x="112" y="125" type="curve"/>
    </contour>
    <contour>
      <point x="393" y="364" type="curve" smooth="yes"/>
      <point x="393" y="456"/>
      <point x="381" y="539"/>
      <point x="356" y="600" type="curve"/>
      <point x="125" y="93" type="line"/>
      <point x="150" y="49"/>
      <point x="186" y="23"/>
      <point x="234" y="23" type="curve" smooth="yes"/>
      <point x="352" y="23"/>
      <point x="393" y="180"/>
    </contour>
  </outline>
</glyph>
<glyph name="Thorn" format="1">
  <advance width="392"/>
  <unicode hex="00DE"/>
  <outline>
    <contour>
      <point x="365" y="382" type="curve" smooth="yes"/>
      <point x="365" y="267"/>
      <point x="285" y="172"/>
      <point x="152" y="172" type="curve" smooth="yes"/>
      <point x="105" y="172" type="line"/>
      <point x="105" y="0" type="line"/>
      <point x="64" y="0" type="line"/>
      <point x="64" y="730" type="line"/>
      <point x="105" y="730" type="line"/>
      <point x="105" y="589" type="line"/>
      <point x="153" y="589" type="line" smooth="yes"/>
      <point x="275" y="589"/>
      <point x="365" y="522"/>
    </contour>
    <contour>
      <point x="323" y="382" type="curve" smooth="yes"/>
      <point x="323" y="494"/>
      <point x="258" y="550"/>
      <point x="154" y="550" type="curve" smooth="yes"/>
      <point x="105" y="550" type="line"/>
      <point x="105" y="211" type="line"/>
      <point x="152" y="211" type="line" smooth="yes"/>
      <point x="259" y="211"/>
      <point x="323" y="283"/>
    </contour>
  </outline>
</glyph>
<glyph name="germandbls" format="1">
  <advance width="297"/>
  <unicode hex="00DF"/>
  <outline>
    <contour>
      <point x="275" y="178" type="curve" smooth="yes"/>
      <point x="275" y="62"/>
      <point x="232" y="-9"/>
      <point x="165" y="-9" type="curve" smooth="yes"/>
      <point x="144" y="-9"/>
      <point x="130" y="-1"/>
      <point x="122" y="7" type="curve"/>
      <point x="130" y="37" type="line"/>
      <point x="136" y="31"/>
      <point x="150" y="24"/>
      <point x="165" y="24" type="curve" smooth="yes"/>
      <point x="212" y="24"/>
      <point x="240" y="87"/>
      <point x="240" y="177" type="curve" smooth="yes"/>
      <point x="240" y="297"/>
      <point x="199" y="407"/>
      <point x="129" y="407" type="curve" smooth="yes"/>
      <point x="125" y="407" type="line"/>
      <point x="125" y="435" type="line"/>
      <point x="132" y="435" type="line" smooth="yes"/>
      <point x="179" y="435"/>
      <point x="217" y="499"/>
      <point x="217" y="581" type="curve" smooth="yes"/>
      <point x="217" y="661"/>
      <point x="189" y="709"/>
      <point x="145" y="709" type="curve" smooth="yes"/>
      <point x="100" y="709"/>
      <point x="79" y="656"/>
      <point x="79" y="578" type="curve" smooth="yes"/>
      <point x="79" y="0" type="line"/>
      <point x="44" y="0" type="line"/>
      <point x="44" y="576" type="line" smooth="yes"/>
      <point x="44" y="684"/>
      <point x="79" y="742"/>
      <point x="146" y="742" type="curve" smooth="yes"/>
      <point x="209" y="742"/>
      <point x="251" y="683"/>
      <point x="251" y="582" type="curve" smooth="yes"/>
      <point x="251" y="494"/>
      <point x="211" y="435"/>
      <point x="172" y="421" type="curve"/>
      <point x="217" y="404"/>
      <point x="275" y="335"/>
    </contour>
  </outline>
</glyph>
<glyph name="ae" format="1">
  <advance width="503"/>
  <unicode hex="00E6"/>
  <outline>
    <contour>
      <point x="466" y="57" type="line"/>
      <point x="444" y="15"/>
      <point x="409" y="-12"/>
      <point x="360" y="-12" type="curve" smooth="yes"/>
      <point x="308" y="-12"/>
      <point x="275" y="14"/>
      <point x="254" y="58" type="curve"/>
      <point x="226" y="20"/>
      <point x="195" y="-9"/>
      <point x="137" y="-9" type="curve" smooth="yes"/>
      <point x="80" y="-9"/>
      <point x="33" y="33"/>
      <point x="33" y="112" type="curve" smooth="yes"/>
      <point x="33" y="195"/>
      <point x="104" y="248"/>
      <point x="199" y="248" type="curve" smooth="yes"/>
      <point x="229" y="248" type="line"/>
      <point x="229" y="298" type="line" smooth="yes"/>
      <point x="229" y="353"/>
      <point x="211" y="381"/>
      <point x="160" y="381" type="curve" smooth="yes"/>
      <point x="124" y="381"/>
      <point x="92" y="367"/>
      <point x="62" y="347" type="curve"/>
      <point x="48" y="376" type="line"/>
      <point x="83" y="398"/>
      <point x="118" y="414"/>
      <point x="162" y="414" type="curve" smooth="yes"/>
      <point x="215" y="414"/>
      <point x="253" y="389"/>
      <point x="254" y="327" type="curve"/>
      <point x="266" y="382"/>
      <point x="306" y="413"/>
      <point x="353" y="413" type="curve" smooth="yes"/>
      <point x="451" y="413"/>
      <point x="478" y="300"/>
      <point x="478" y="224" type="curve" smooth="yes"/>
      <point x="478" y="200" type="line"/>
      <point x="263" y="200" type="line"/>
      <point x="263" y="106"/>
      <point x="283" y="20"/>
      <point x="360" y="20" type="curve" smooth="yes"/>
      <point x="399" y="20"/>
      <point x="427" y="46"/>
      <point x="441" y="76" type="curve"/>
    </contour>
    <contour>
      <point x="442" y="230" type="line"/>
      <point x="442" y="240" type="line" smooth="yes"/>
      <point x="442" y="299"/>
      <point x="422" y="381"/>
      <point x="353" y="381" type="curve" smooth="yes"/>
      <point x="288" y="381"/>
      <point x="264" y="308"/>
      <point x="264" y="230" type="curve"/>
    </contour>
    <contour>
      <point x="240" y="89" type="curve"/>
      <point x="232" y="115"/>
      <point x="229" y="152"/>
      <point x="229" y="190" type="curve" smooth="yes"/>
      <point x="229" y="199"/>
      <point x="229" y="210"/>
      <point x="229" y="217" type="curve"/>
      <point x="225" y="217" type="line"/>
      <point x="199" y="217" type="line" smooth="yes"/>
      <point x="116" y="217"/>
      <point x="68" y="173"/>
      <point x="68" y="114" type="curve" smooth="yes"/>
      <point x="68" y="54"/>
      <point x="98" y="24"/>
      <point x="140" y="24" type="curve" smooth="yes"/>
      <point x="181" y="24"/>
      <point x="211" y="41"/>
    </contour>
  </outline>
</glyph>
<glyph name="ccedilla" format="1">
  <advance width="276"/>
  <unicode hex="00E7"/>
  <outline>
    <contour>
      <point x="137" y="-10" type="line"/>
      <point x="64" y="2"/>
      <point x="27" y="92"/>
      <point x="27" y="200" type="curve" smooth="yes"/>
      <point x="27" y="317"/>
      <point x="70" y="413"/>
      <point x="155" y="413" type="curve" smooth="yes"/>
      <point x="205" y="413"/>
      <point x="232" y="376"/>
      <point x="251" y="341" type="curve"/>
      <point x="226" y="322" type="line"/>
      <point x="208" y="358"/>
      <point x="188" y="383"/>
      <point x="155" y="383" type="curve" smooth="yes"/>
      <point x="89" y="383"/>
      <point x="61" y="296"/>
      <point x="61" y="200" type="curve" smooth="yes"/>
      <point x="61" y="104"/>
      <point x="89" y="18"/>
      <point x="155" y="18" type="curve" smooth="yes"/>
      <point x="192" y="18"/>
      <point x="214" y="43"/>
      <point x="233" y="80" type="curve"/>
      <point x="259" y="62" type="line"/>
      <point x="236" y="22"/>
      <point x="208" y="-8"/>
      <point x="163" y="-12" type="curve"/>
      <point x="146" y="-48" type="line"/>
      <point x="149" y="-47"/>
      <point x="156" y="-45"/>
      <point x="164" y="-45" type="curve" smooth="yes"/>
      <point x="190" y="-45"/>
      <point x="221" y="-61"/>
      <point x="221" y="-103" type="curve" smooth="yes"/>
      <point x="221" y="-154"/>
      <point x="186" y="-174"/>
      <point x="150" y="-174" type="curve" smooth="yes"/>
      <point x="125" y="-174"/>
      <point x="101" y="-160"/>
      <point x="82" y="-139" type="curve"/>
      <point x="97" y="-123" type="line"/>
      <point x="112" y="-140"/>
      <point x="129" y="-151"/>
      <point x="149" y="-151" type="curve" smooth="yes"/>
      <point x="173" y="-151"/>
      <point x="192" y="-137"/>
      <point x="192" y="-105" type="curve" smooth="yes"/>
      <point x="192" y="-82"/>
      <point x="179" y="-67"/>
      <point x="155" y="-67" type="curve" smooth="yes"/>
      <point x="142" y="-67"/>
      <point x="130" y="-70"/>
      <point x="119" y="-73" type="curve"/>
      <point x="112" y="-61" type="line"/>
    </contour>
  </outline>
</glyph>
<glyph name="eth" format="1">
  <advance width="340"/>
  <unicode hex="00F0"/>
  <outline>
    <contour>
      <point x="309" y="228" type="curve" smooth="yes"/>
      <point x="309" y="93"/>
      <point x="265" y="-12"/>
      <point x="169" y="-12" type="curve" smooth="yes"/>
      <point x="81" y="-12"/>
      <point x="31" y="89"/>
      <point x="31" y="218" type="curve" smooth="yes"/>
      <point x="31" y="335"/>
      <point x="75" y="441"/>
      <point x="169" y="441" type="curve" smooth="yes"/>
      <point x="213" y="441"/>
      <point x="237" y="416"/>
      <point x="260" y="387" type="curve"/>
      <point x="248" y="441"/>
      <point x="231" y="506"/>
      <point x="201" y="585" type="curve"/>
      <point x="96" y="543" type="line"/>
      <point x="84" y="570" type="line"/>
      <point x="189" y="613" type="line"/>
      <point x="181" y="636"/>
      <point x="155" y="699"/>
      <point x="143" y="724" type="curve"/>
      <point x="167" y="735" type="line"/>
      <point x="183" y="703"/>
      <point x="208" y="647"/>
      <point x="217" y="624" type="curve"/>
      <point x="291" y="654" type="line"/>
      <point x="303" y="627" type="line"/>
      <point x="229" y="597" type="line"/>
      <point x="263" y="514"/>
      <point x="309" y="355"/>
    </contour>
    <contour>
      <point x="274" y="221" type="curve" smooth="yes"/>
      <point x="274" y="310"/>
      <point x="247" y="409"/>
      <point x="171" y="409" type="curve" smooth="yes"/>
      <point x="91" y="409"/>
      <point x="66" y="311"/>
      <point x="66" y="215" type="curve" smooth="yes"/>
      <point x="66" y="104"/>
      <point x="103" y="20"/>
      <point x="169" y="20" type="curve" smooth="yes"/>
      <point x="235" y="20"/>
      <point x="274" y="97"/>
    </contour>
  </outline>
</glyph>
<glyph name="oslash" format="1">
  <advance width="311"/>
  <unicode hex="00F8"/>
  <outline>
    <contour>
      <point x="292" y="405" type="line"/>
      <point x="255" y="343" type="line"/>
      <point x="272" y="305"/>
      <point x="280" y="254"/>
      <point x="280" y="201" type="curve" smooth="yes"/>
      <point x="280" y="88"/>
      <point x="248" y="-12"/>
      <point x="153" y="-12" type="curve" smooth="yes"/>
      <point x="115" y="-12"/>
      <point x="87" y="4"/>
      <point x="68" y="32" type="curve"/>
      <point x="41" y="-13" type="line"/>
      <point x="22" y="-2" type="line"/>
      <point x="54" y="53" type="line"/>
      <point x="35" y="92"/>
      <point x="27" y="145"/>
      <point x="27" y="201" type="curve" smooth="yes"/>
      <point x="27" y="313"/>
      <point x="59" y="413"/>
      <point x="153" y="413" type="curve" smooth="yes"/>
      <point x="193" y="413"/>
      <point x="222" y="395"/>
      <point x="242" y="365" type="curve"/>
      <point x="273" y="417" type="line"/>
    </contour>
    <contour>
      <point x="223" y="334" type="line"/>
      <point x="209" y="363"/>
      <point x="187" y="381"/>
      <point x="153" y="381" type="curve" smooth="yes"/>
      <point x="81" y="381"/>
      <point x="63" y="294"/>
      <point x="63" y="201" type="curve" smooth="yes"/>
      <point x="63" y="160"/>
      <point x="66" y="120"/>
      <point x="77" y="89" type="curve"/>
    </contour>
    <contour>
      <point x="232" y="306" type="curve"/>
      <point x="86" y="62" type="line"/>
      <point x="101" y="36"/>
      <point x="121" y="20"/>
      <point x="153" y="20" type="curve" smooth="yes"/>
      <point x="227" y="20"/>
      <point x="244" y="106"/>
      <point x="244" y="201" type="curve" smooth="yes"/>
      <point x="244" y="239"/>
      <point x="241" y="276"/>
    </contour>
  </outline>
</glyph>
<glyph name="dotlessi" format="1">
  <advance width="137"/>
  <unicode hex="0131"/>
  <outline>
    <contour>
      <point x="85" y="0" type="line"/>
      <point x="52" y="0" type="line"/>
      <point x="52" y="401" type="line"/>
      <point x="85" y="401" type="line"/>
    </contour>
  </outline>
</glyph>
<glyph name="Lslash" format="1">
  <advance width="318"/>
  <unicode hex="0141"/>
  <outline>
    <contour>
      <point x="199" y="386" type="line"/>
      <point x="101" y="326" type="line"/>
      <point x="101" y="36" type="line"/>
      <point x="304" y="36" type="line"/>
      <point x="304" y="0" type="line"/>
      <point x="65" y="0" type="line"/>
      <point x="65" y="307" type="line"/>
      <point x="24" y="281" type="line"/>
      <point x="9" y="312" type="line"/>
      <point x="65" y="347" type="line"/>
      <point x="65" y="730" type="line"/>
      <point x="101" y="730" type="line"/>
      <point x="101" y="365" type="line"/>
      <point x="185" y="418" type="line"/>
    </contour>
  </outline>
</glyph>
<glyph name="lslash" format="1">
  <advance width="166"/>
  <unicode hex="0142"/>
  <outline>
    <contour>
      <point x="164" y="351" type="line"/>
      <point x="103" y="322" type="line"/>
      <point x="103" y="0" type="line"/>
      <point x="65" y="0" type="line"/>
      <point x="65" y="305" type="line"/>
      <point x="24" y="285" type="line"/>
      <point x="9" y="316" type="line"/>
      <point x="65" y="343" type="line"/>
      <point x="65" y="730" type="line"/>
      <point x="103" y="730" type="line"/>
      <point x="103" y="360" type="line"/>
      <point x="150" y="382" type="line"/>
    </contour>
  </outline>
</glyph>
<glyph name="OE" format="1">
  <advance width="677"/>
  <unicode hex="0152"/>
  <outline>
    <contour>
      <point x="647" y="0" type="line"/>
      <point x="393" y="0" type="line"/>
      <point x="393" y="157" type="line"/>
      <point x="374" y="49"/>
      <point x="314" y="-12"/>
      <point x="234" y="-12" type="curve" smooth="yes"/>
      <point x="89" y="-12"/>
      <point x="38" y="159"/>
      <point x="38" y="364" type="curve" smooth="yes"/>
      <point x="38" y="570"/>
      <point x="89" y="742"/>
      <point x="234" y="742" type="curve" smooth="yes"/>
      <point x="314" y="742"/>
      <point x="372" y="679"/>
      <point x="393" y="567" type="curve"/>
      <point x="393" y="730" type="line"/>
      <point x="638" y="730" type="line"/>
      <point x="638" y="696" type="line"/>
      <point x="430" y="696" type="line"/>
      <point x="430" y="385" type="line"/>
      <point x="615" y="385" type="line"/>
      <point x="615" y="350" type="line"/>
      <point x="430" y="350" type="line"/>
      <point x="430" y="34" type="line"/>
      <point x="647" y="34" type="line"/>
    </contour>
    <contour>
      <point x="393" y="364" type="curve" smooth="yes"/>
      <point x="393" y="550"/>
      <point x="349" y="707"/>
      <point x="234" y="707" type="curve" smooth="yes"/>
      <point x="115" y="707"/>
      <point x="76" y="550"/>
      <point x="76" y="364" type="curve" smooth="yes"/>
      <point x="76" y="180"/>
      <point x="115" y="23"/>
      <point x="234" y="23" type="curve" smooth="yes"/>
      <point x="352" y="23"/>
      <point x="393" y="180"/>
    </contour>
  </outline>
</glyph>
<glyph name="oe" format="1">
  <advance width="519"/>
  <unicode hex="0153"/>
  <outline>
    <contour>
      <point x="481" y="57" type="line"/>
      <point x="459" y="15"/>
      <point x="425" y="-12"/>
      <point x="376" y="-12" type="curve" smooth="yes"/>
      <point x="314" y="-12"/>
      <point x="274" y="30"/>
      <point x="262" y="94" type="curve"/>
      <point x="249" y="30"/>
      <point x="212" y="-12"/>
      <point x="153" y="-12" type="curve" smooth="yes"/>
      <point x="59" y="-12"/>
      <point x="27" y="88"/>
      <point x="27" y="201" type="curve" smooth="yes"/>
      <point x="27" y="313"/>
      <point x="59" y="413"/>
      <point x="153" y="413" type="curve" smooth="yes"/>
      <point x="211" y="413"/>
      <point x="251" y="369"/>
      <point x="262" y="307" type="curve"/>
      <point x="272" y="370"/>
      <point x="311" y="413"/>
      <point x="369" y="413" type="curve" smooth="yes"/>
      <point x="466" y="413"/>
      <point x="493" y="300"/>
      <point x="493" y="224" type="curve" smooth="yes"/>
      <point x="493" y="199" type="line"/>
      <point x="279" y="199" type="line"/>
      <point x="279" y="199"/>
      <point x="279" y="192"/>
      <point x="279" y="189" type="curve" smooth="yes"/>
      <point x="279" y="100"/>
      <point x="301" y="20"/>
      <point x="376" y="20" type="curve" smooth="yes"/>
      <point x="415" y="20"/>
      <point x="442" y="46"/>
      <point x="457" y="76" type="curve"/>
    </contour>
    <contour>
      <point x="457" y="229" type="line"/>
      <point x="457" y="240" type="line" smooth="yes"/>
      <point x="457" y="299"/>
      <point x="438" y="381"/>
      <point x="369" y="381" type="curve" smooth="yes"/>
      <point x="304" y="381"/>
      <point x="280" y="307"/>
      <point x="280" y="229" type="curve"/>
    </contour>
    <contour>
      <point x="249" y="200" type="curve" smooth="yes"/>
      <point x="249" y="296"/>
      <point x="221" y="383"/>
      <point x="155" y="383" type="curve" smooth="yes"/>
      <point x="89" y="383"/>
      <point x="61" y="296"/>
      <point x="61" y="200" type="curve" smooth="yes"/>
      <point x="61" y="104"/>
      <point x="89" y="18"/>
      <point x="155" y="18" type="curve" smooth="yes"/>
      <point x="221" y="18"/>
      <point x="249" y="104"/>
    </contour>
  </outline>
</glyph>
<glyph name="florin" format="1">
  <advance width="215"/>
  <unicode hex="0192"/>
  <outline>
    <contour>
      <point x="116" y="403" type="line"/>
      <point x="174" y="403" type="line"/>
      <point x="171" y="370" type="line"/>
      <point x="114" y="370" type="line"/>
      <point x="75" y="-75" type="line" smooth="yes"/>
      <point x="68" y="-158"/>
      <point x="31" y="-179"/>
      <point x="-30" y="-179" type="curve" smooth="yes"/>
      <point x="-38" y="-179" type="line"/>
      <point x="-35" y="-145" type="line"/>
      <point x="-34" y="-145"/>
      <point x="-27" y="-145"/>
      <point x="-27" y="-145" type="curve" smooth="yes"/>
      <point x="25" y="-145"/>
      <point x="36" y="-120"/>
      <point x="40" y="-73" type="curve" smooth="yes"/>
      <point x="78" y="370" type="line"/>
      <point x="33" y="370" type="line"/>
      <point x="36" y="403" type="line"/>
      <point x="81" y="403" type="line"/>
      <point x="100" y="625" type="line" smooth="yes"/>
      <point x="106" y="699"/>
      <point x="145" y="730"/>
      <point x="203" y="730" type="curve" smooth="yes"/>
      <point x="212" y="730" type="line"/>
      <point x="209" y="696" type="line"/>
      <point x="202" y="696" type="line" smooth="yes"/>
      <point x="150" y="696"/>
      <point x="138" y="661"/>
      <point x="135" y="623" type="curve" smooth="yes"/>
    </contour>
  </outline>
</glyph>
<glyph name="circumflex" format="1">
  <advance width="395"/>
  <unicode hex="02C6"/>
  <outline>
    <contour>
      <point x="274" y="485" type="line"/>
      <point x="242" y="485" type="line"/>
      <point x="197" y="581" type="line"/>
      <point x="152" y="485" type="line"/>
      <point x="121" y="485" type="line"/>
      <point x="184" y="615" type="line"/>
      <point x="211" y="615" type="line"/>
    </contour>
  </outline>
</glyph>
<glyph name="caron" format="1">
  <advance width="395"/>
  <unicode hex="02C7"/>
  <outline>
    <contour>
      <point x="273" y="615" type="line"/>
      <point x="210" y="485" type="line"/>
      <point x="184" y="485" type="line"/>
      <point x="121" y="615" type="line"/>
      <point x="149" y="615" type="line"/>
      <point x="197" y="522" type="line"/>
      <point x="245" y="615" type="line"/>
    </contour>
  </outline>
</glyph>
<glyph name="breve" format="1">
  <advance width="395"/>
  <unicode hex="02D8"/>
  <outline>
    <contour>
      <point x="285" y="608" type="line"/>
      <point x="285" y="526"/>
      <point x="246" y="481"/>
      <point x="197" y="481" type="curve" smooth="yes"/>
      <point x="149" y="481"/>
      <point x="110" y="526"/>
      <point x="110" y="608" type="curve"/>
      <point x="139" y="608" type="line"/>
      <point x="139" y="549"/>
      <point x="164" y="508"/>
      <point x="197" y="508" type="curve" smooth="yes"/>
      <point x="232" y="508"/>
      <point x="256" y="549"/>
      <point x="256" y="608" type="curve"/>
    </contour>
  </outline>
</glyph>
<glyph name="dotaccent" format="1">
  <advance width="395"/>
  <unicode hex="02D9"/>
  <outline>
    <contour>
      <point x="216" y="493" type="line"/>
      <point x="179" y="493" type="line"/>
      <point x="179" y="572" type="line"/>
      <point x="216" y="572" type="line"/>
    </contour>
  </outline>
</glyph>
<glyph name="ring" format="1">
  <advance width="395"/>
  <unicode hex="02DA"/>
  <outline>
    <contour>
      <point x="266" y="573" type="curve" smooth="yes"/>
      <point x="266" y="519"/>
      <point x="239" y="478"/>
      <point x="198" y="478" type="curve" smooth="yes"/>
      <point x="156" y="478"/>
      <point x="129" y="519"/>
      <point x="129" y="573" type="curve" smooth="yes"/>
      <point x="129" y="627"/>
      <point x="156" y="667"/>
      <point x="198" y="667" type="curve" smooth="yes"/>
      <point x="239" y="667"/>
      <point x="266" y="627"/>
    </contour>
    <contour>
      <point x="239" y="573" type="curve" smooth="yes"/>
      <point x="239" y="610"/>
      <point x="224" y="640"/>
      <point x="198" y="640" type="curve" smooth="yes"/>
      <point x="172" y="640"/>
      <point x="156" y="610"/>
      <point x="156" y="573" type="curve" smooth="yes"/>
      <point x="156" y="536"/>
      <point x="172" y="505"/>
      <point x="198" y="505" type="curve" smooth="yes"/>
      <point x="224" y="505"/>
      <point x="239" y="536"/>
    </contour>
  </outline>
</glyph>
<glyph name="ogonek" format="1">
  <advance width="395"/>
  <unicode hex="02DB"/>
  <outline>
    <contour>
      <point x="266" y="-143" type="line"/>
      <point x="247" y="-166"/>
      <point x="220" y="-180"/>
      <point x="194" y="-180" type="curve" smooth="yes"/>
      <point x="153" y="-180"/>
      <point x="120" y="-151"/>
      <point x="120" y="-99" type="curve" smooth="yes"/>
      <point x="120" y="-63"/>
      <point x="142" y="-21"/>
      <point x="187" y="12" type="curve"/>
      <point x="220" y="12" type="line"/>
      <point x="170" y="-25"/>
      <point x="154" y="-66"/>
      <point x="154" y="-98" type="curve" smooth="yes"/>
      <point x="154" y="-135"/>
      <point x="170" y="-153"/>
      <point x="195" y="-153" type="curve" smooth="yes"/>
      <point x="215" y="-153"/>
      <point x="233" y="-143"/>
      <point x="251" y="-123" type="curve"/>
    </contour>
  </outline>
</glyph>
<glyph name="tilde" format="1">
  <advance width="395"/>
  <unicode hex="02DC"/>
  <outline>
    <contour>
      <point x="288" y="576" type="line"/>
      <point x="288" y="510"/>
      <point x="267" y="481"/>
      <point x="236" y="481" type="curve" smooth="yes"/>
      <point x="213" y="481"/>
      <point x="198" y="502"/>
      <point x="187" y="522" type="curve" smooth="yes"/>
      <point x="178" y="538"/>
      <point x="169" y="551"/>
      <point x="158" y="551" type="curve" smooth="yes"/>
      <point x="139" y="551"/>
      <point x="133" y="520"/>
      <point x="131" y="485" type="curve"/>
      <point x="104" y="485" type="line"/>
      <point x="104" y="542"/>
      <point x="125" y="579"/>
      <point x="157" y="579" type="curve" smooth="yes"/>
      <point x="178" y="579"/>
      <point x="192" y="564"/>
      <point x="203" y="546" type="curve" smooth="yes"/>
      <point x="213" y="530"/>
      <point x="223" y="509"/>
      <point x="236" y="509" type="curve" smooth="yes"/>
      <point x="252" y="509"/>
      <point x="261" y="534"/>
      <point x="260" y="576" type="curve"/>
    </contour>
  </outline>
</glyph>
<glyph name="hungarumlaut" format="1">
  <advance width="395"/>
  <unicode hex="02DD"/>
  <outline>
    <contour>
      <point x="293" y="620" type="line"/>
      <point x="230" y="485" type="line"/>
      <point x="198" y="485" type="line"/>
      <point x="255" y="620" type="line"/>
    </contour>
    <contour>
      <point x="196" y="620" type="line"/>
      <point x="134" y="485" type="line"/>
      <point x="102" y="485" type="line"/>
      <point x="159" y="620" type="line"/>
    </contour>
  </outline>
</glyph>
<glyph name="endash" format="1">
  <advance width="290"/>
  <unicode hex="2013"/>
  <outline>
    <contour>
      <point x="261" y="208" type="line"/>
      <point x="29" y="208" type="line"/>
      <point x="29" y="244" type="line"/>
      <point x="261" y="244" type="line"/>
    </contour>
  </outline>
</glyph>
<glyph name="emdash" format="1">
  <advance width="500"/>
  <unicode hex="2014"/>
  <outline>
    <contour>
      <point x="471" y="209" type="line"/>
      <point x="29" y="209" type="line"/>
      <point x="29" y="243" type="line"/>
      <point x="471" y="243" type="line"/>
    </contour>
  </outline>
</glyph>
<glyph name="quoteleft" format="1">
  <advance width="122"/>
  <unicode hex="2018"/>
  <unicode hex="02BB"/>
  <outline>
    <contour>
      <point x="102" y="730" type="line"/>
      <point x="80" y="694"/>
      <point x="72" y="659"/>
      <point x="72" y="604" type="curve" smooth="yes"/>
      <point x="72" y="569" type="line"/>
      <point x="38" y="569" type="line"/>
      <point x="38" y="603" type="line" smooth="yes"/>
      <point x="38" y="648"/>
      <point x="56" y="698"/>
      <point x="78" y="730" type="curve"/>
    </contour>
  </outline>
</glyph>
<glyph name="quotedblleft" format="1">
  <advance width="220"/>
  <unicode hex="201C"/>
  <outline>
    <contour>
      <point x="200" y="730" type="line"/>
      <point x="178" y="694"/>
      <point x="170" y="659"/>
      <point x="170" y="604" type="curve" smooth="yes"/>
      <point x="170" y="569" type="line"/>
      <point x="136" y="569" type="line"/>
      <point x="136" y="603" type="line" smooth="yes"/>
      <point x="136" y="648"/>
      <point x="154" y="698"/>
      <point x="176" y="730" type="curve"/>
    </contour>
    <contour>
      <point x="102" y="730" type="line"/>
      <point x="80" y="694"/>
      <point x="72" y="659"/>
      <point x="72" y="604" type="curve" smooth="yes"/>
      <point x="72" y="569" type="line"/>
      <point x="38" y="569" type="line"/>
      <point x="38" y="603" type="line" smooth="yes"/>
      <point x="38" y="648"/>
      <point x="56" y="698"/>
      <point x="78" y="730" type="curve"/>
    </contour>
  </outline>
</glyph>
<glyph name="quotedblright" format="1">
  <advance width="220"/>
  <unicode hex="201D"/>
  <outline>
    <contour>
      <point x="182" y="696" type="line" smooth="yes"/>
      <point x="182" y="651"/>
      <point x="164" y="601"/>
      <point x="142" y="569" type="curve"/>
      <point x="118" y="569" type="line"/>
      <point x="140" y="605"/>
      <point x="148" y="640"/>
      <point x="148" y="695" type="curve" smooth="yes"/>
      <point x="148" y="730" type="line"/>
      <point x="182" y="730" type="line"/>
    </contour>
    <contour>
      <point x="84" y="696" type="line" smooth="yes"/>
      <point x="84" y="651"/>
      <point x="66" y="601"/>
      <point x="44" y="569" type="curve"/>
      <point x="20" y="569" type="line"/>
      <point x="42" y="605"/>
      <point x="50" y="640"/>
      <point x="50" y="695" type="curve" smooth="yes"/>
      <point x="50" y="730" type="line"/>
      <point x="84" y="730" type="line"/>
    </contour>
  </outline>
</glyph>
<glyph name="quotedblbase" format="1">
  <advance width="220"/>
  <unicode hex="201E"/>
  <outline>
    <contour>
      <point x="176" y="36" type="line" smooth="yes"/>
      <point x="176" y="-9"/>
      <point x="158" y="-59"/>
      <point x="136" y="-91" type="curve"/>
      <point x="112" y="-91" type="line"/>
      <point x="134" y="-55"/>
      <point x="142" y="-20"/>
      <point x="142" y="35" type="curve" smooth="yes"/>
      <point x="142" y="70" type="line"/>
      <point x="176" y="70" type="line"/>
    </contour>
    <contour>
      <point x="78" y="36" type="line" smooth="yes"/>
      <point x="78" y="-9"/>
      <point x="60" y="-59"/>
      <point x="38" y="-91" type="curve"/>
      <point x="14" y="-91" type="line"/>
      <point x="36" y="-55"/>
      <point x="44" y="-20"/>
      <point x="44" y="35" type="curve" smooth="yes"/>
      <point x="44" y="70" type="line"/>
      <point x="78" y="70" type="line"/>
    </contour>
  </outline>
</glyph>
<glyph name="dagger" format="1">
  <advance width="297"/>
  <unicode hex="2020"/>
  <outline>
    <contour>
      <point x="277" y="404" type="line"/>
      <point x="165" y="404" type="line"/>
      <point x="165" y="17" type="line"/>
      <point x="155" y="-179" type="line"/>
      <point x="142" y="-179" type="line"/>
      <point x="132" y="17" type="line"/>
      <point x="132" y="404" type="line"/>
      <point x="20" y="404" type="line"/>
      <point x="20" y="433" type="line"/>
      <point x="132" y="433" type="line"/>
      <point x="132" y="730" type="line"/>
      <point x="165" y="730" type="line"/>
      <point x="165" y="433" type="line"/>
      <point x="277" y="433" type="line"/>
    </contour>
  </outline>
</glyph>
<glyph name="daggerdbl" format="1">
  <advance width="317"/>
  <unicode hex="2021"/>
  <outline>
    <contour>
      <point x="287" y="30" type="line"/>
      <point x="175" y="30" type="line"/>
      <point x="175" y="-179" type="line"/>
      <point x="142" y="-179" type="line"/>
      <point x="142" y="30" type="line"/>
      <point x="30" y="30" type="line"/>
      <point x="30" y="59" type="line"/>
      <point x="142" y="59" type="line"/>
      <point x="142" y="123" type="line"/>
      <point x="150" y="276" type="line"/>
      <point x="142" y="428" type="line"/>
      <point x="142" y="492" type="line"/>
      <point x="30" y="492" type="line"/>
      <point x="30" y="521" type="line"/>
      <point x="142" y="521" type="line"/>
      <point x="142" y="730" type="line"/>
      <point x="175" y="730" type="line"/>
      <point x="175" y="521" type="line"/>
      <point x="287" y="521" type="line"/>
      <point x="287" y="492" type="line"/>
      <point x="175" y="492" type="line"/>
      <point x="175" y="428" type="line"/>
      <point x="167" y="275" type="line"/>
      <point x="175" y="123" type="line"/>
      <point x="175" y="59" type="line"/>
      <point x="287" y="59" type="line"/>
    </contour>
  </outline>
</glyph>
<glyph name="ellipsis" format="1">
  <advance width="347"/>
  <unicode hex="2026"/>
  <outline>
    <contour>
      <point x="309" y="0" type="line"/>
      <point x="273" y="0" type="line"/>
      <point x="273" y="87" type="line"/>
      <point x="309" y="87" type="line"/>
    </contour>
    <contour>
      <point x="191" y="0" type="line"/>
      <point x="156" y="0" type="line"/>
      <point x="156" y="87" type="line"/>
      <point x="191" y="87" type="line"/>
    </contour>
    <contour>
      <point x="73" y="0" type="line"/>
      <point x="38" y="0" type="line"/>
      <point x="38" y="87" type="line"/>
      <point x="73" y="87" type="line"/>
    </contour>
  </outline>
</glyph>
<glyph name="perthousand" format="1">
  <advance width="900"/>
  <unicode hex="2030"/>
  <outline>
    <contour>
      <point x="286" y="553" type="curve" smooth="yes"/>
      <point x="286" y="433"/>
      <point x="227" y="364"/>
      <point x="162" y="364" type="curve" smooth="yes"/>
      <point x="97" y="364"/>
      <point x="42" y="433"/>
      <point x="42" y="553" type="curve" smooth="yes"/>
      <point x="42" y="673"/>
      <point x="101" y="742"/>
      <point x="166" y="742" type="curve" smooth="yes"/>
      <point x="231" y="742"/>
      <point x="286" y="673"/>
    </contour>
    <contour>
      <point x="509" y="730" type="line"/>
      <point x="140" y="0" type="line"/>
      <point x="105" y="0" type="line"/>
      <point x="474" y="730" type="line"/>
    </contour>
    <contour>
      <point x="858" y="177" type="curve" smooth="yes"/>
      <point x="858" y="57"/>
      <point x="799" y="-12"/>
      <point x="734" y="-12" type="curve" smooth="yes"/>
      <point x="669" y="-12"/>
      <point x="614" y="57"/>
      <point x="614" y="177" type="curve" smooth="yes"/>
      <point x="614" y="297"/>
      <point x="673" y="366"/>
      <point x="738" y="366" type="curve" smooth="yes"/>
      <point x="803" y="366"/>
      <point x="858" y="297"/>
    </contour>
    <contour>
      <point x="572" y="177" type="curve" smooth="yes"/>
      <point x="572" y="57"/>
      <point x="513" y="-12"/>
      <point x="448" y="-12" type="curve" smooth="yes"/>
      <point x="383" y="-12"/>
      <point x="328" y="57"/>
      <point x="328" y="177" type="curve" smooth="yes"/>
      <point x="328" y="297"/>
      <point x="387" y="366"/>
      <point x="452" y="366" type="curve" smooth="yes"/>
      <point x="517" y="366"/>
      <point x="572" y="297"/>
    </contour>
    <contour>
      <point x="251" y="553" type="curve" smooth="yes"/>
      <point x="251" y="659"/>
      <point x="210" y="712"/>
      <point x="164" y="712" type="curve" smooth="yes"/>
      <point x="118" y="712"/>
      <point x="77" y="659"/>
      <point x="77" y="553" type="curve" smooth="yes"/>
      <point x="77" y="447"/>
      <point x="118" y="394"/>
      <point x="164" y="394" type="curve" smooth="yes"/>
      <point x="210" y="394"/>
      <point x="251" y="447"/>
    </contour>
    <contour>
      <point x="823" y="177" type="curve" smooth="yes"/>
      <point x="823" y="283"/>
      <point x="782" y="336"/>
      <point x="736" y="336" type="curve" smooth="yes"/>
      <point x="690" y="336"/>
      <point x="649" y="283"/>
      <point x="649" y="177" type="curve" smooth="yes"/>
      <point x="649" y="71"/>
      <point x="690" y="18"/>
      <point x="736" y="18" type="curve" smooth="yes"/>
      <point x="782" y="18"/>
      <point x="823" y="71"/>
    </contour>
    <contour>
      <point x="537" y="177" type="curve" smooth="yes"/>
      <point x="537" y="283"/>
      <point x="496" y="336"/>
      <point x="450" y="336" type="curve" smooth="yes"/>
      <point x="404" y="336"/>
      <point x="363" y="283"/>
      <point x="363" y="177" type="curve" smooth="yes"/>
      <point x="363" y="71"/>
      <point x="404" y="18"/>
      <point x="450" y="18" type="curve" smooth="yes"/>
      <point x="496" y="18"/>
      <point x="537" y="71"/>
    </contour>
  </outline>
</glyph>
<glyph name="guilsinglleft" format="1">
  <advance width="122"/>
  <unicode hex="2039"/>
  <outline>
    <contour>
      <point x="98" y="115" type="line"/>
      <point x="98" y="71" type="line"/>
      <point x="15" y="185" type="line"/>
      <point x="15" y="222" type="line"/>
      <point x="101" y="336" type="line"/>
      <point x="101" y="294" type="line"/>
      <point x="38" y="203" type="line"/>
    </contour>
  </outline>
</glyph>
<glyph name="guilsinglright" format="1">
  <advance width="122"/>
  <unicode hex="203A"/>
  <outline>
    <contour>
      <point x="108" y="185" type="line"/>
      <point x="24" y="71" type="line"/>
      <point x="24" y="115" type="line"/>
      <point x="84" y="203" type="line"/>
      <point x="21" y="294" type="line"/>
      <point x="21" y="336" type="line"/>
      <point x="108" y="222" type="line"/>
    </contour>
  </outline>
</glyph>
<glyph name="fraction" format="1">
  <advance width="292"/>
  <unicode hex="2044"/>
  <outline>
    <contour>
      <point x="325" y="730" type="line"/>
      <point x="2" y="0" type="line"/>
      <point x="-33" y="0" type="line"/>
      <point x="290" y="730" type="line"/>
    </contour>
  </outline>
</glyph>
<glyph name="Euro" format="1">
  <advance width="381"/>
  <unicode hex="20AC"/>
  <outline>
    <contour>
      <point x="362" y="47" type="line"/>
      <point x="338" y="17"/>
      <point x="304" y="-12"/>
      <point x="256" y="-12" type="curve" smooth="yes"/>
      <point x="129" y="-12"/>
      <point x="77" y="115"/>
      <point x="66" y="286" type="curve"/>
      <point x="5" y="286" type="line"/>
      <point x="5" y="313" type="line"/>
      <point x="64" y="313" type="line"/>
      <point x="64" y="329"/>
      <point x="63" y="346"/>
      <point x="63" y="364" type="curve" smooth="yes"/>
      <point x="63" y="379"/>
      <point x="64" y="393"/>
      <point x="64" y="407" type="curve"/>
      <point x="5" y="407" type="line"/>
      <point x="5" y="434" type="line"/>
      <point x="66" y="434" type="line"/>
      <point x="77" y="630"/>
      <point x="139" y="742"/>
      <point x="254" y="742" type="curve" smooth="yes"/>
      <point x="299" y="742"/>
      <point x="333" y="724"/>
      <point x="358" y="692" type="curve"/>
      <point x="338" y="664" type="line"/>
      <point x="318" y="692"/>
      <point x="291" y="707"/>
      <point x="255" y="707" type="curve" smooth="yes"/>
      <point x="162" y="707"/>
      <point x="113" y="603"/>
      <point x="103" y="434" type="curve"/>
      <point x="248" y="434" type="line"/>
      <point x="248" y="407" type="line"/>
      <point x="101" y="407" type="line"/>
      <point x="100" y="393"/>
      <point x="100" y="379"/>
      <point x="100" y="364" type="curve" smooth="yes"/>
      <point x="100" y="346"/>
      <point x="101" y="330"/>
      <point x="101" y="313" type="curve"/>
      <point x="248" y="313" type="line"/>
      <point x="248" y="286" type="line"/>
      <point x="103" y="286" type="line"/>
      <point x="114" y="133"/>
      <point x="158" y="23"/>
      <point x="256" y="23" type="curve" smooth="yes"/>
      <point x="295" y="23"/>
      <point x="322" y="46"/>
      <point x="341" y="74" type="curve"/>
    </contour>
  </outline>
</glyph>
<glyph name="minus" format="1">
  <advance width="319"/>
  <unicode hex="2212"/>
  <outline>
    <contour>
      <point x="23" y="321" type="line"/>
      <point x="23" y="350" type="line"/>
      <point x="296" y="350" type="line"/>
      <point x="296" y="321" type="line"/>
    </contour>
  </outline>
</glyph>
<glyph name="radical" format="1">
  <advance width="435"/>
  <unicode hex="221A"/>
  <outline>
    <contour>
      <point x="387" y="730" type="line"/>
      <point x="195" y="-22" type="line"/>
      <point x="175" y="-22" type="line"/>
      <point x="11" y="316" type="line"/>
      <point x="50" y="316" type="line"/>
      <point x="170" y="66" type="line" smooth="yes"/>
      <point x="173" y="60"/>
      <point x="179" y="46"/>
      <point x="179" y="46" type="curve"/>
      <point x="179" y="46"/>
      <point x="182" y="60"/>
      <point x="183" y="66" type="curve" smooth="yes"/>
      <point x="351" y="730" type="line"/>
    </contour>
  </outline>
</glyph>
<glyph name="f_f" format="1">
  <advance width="300"/>
  <unicode hex="FB00"/>
  <outline>
    <contour>
      <point x="286" y="372" type="line"/>
      <point x="239" y="372" type="line"/>
      <point x="239" y="0" type="line"/>
      <point x="206" y="0" type="line"/>
      <point x="206" y="372" type="line"/>
      <point x="162" y="372" type="line"/>
      <point x="162" y="401" type="line"/>
      <point x="206" y="401" type="line"/>
      <point x="206" y="643" type="line" smooth="yes"/>
      <point x="206" y="707"/>
      <point x="239" y="735"/>
      <point x="284" y="735" type="curve"/>
      <point x="284" y="702" type="line"/>
      <point x="254" y="702"/>
      <point x="239" y="680"/>
      <point x="239" y="639" type="curve" smooth="yes"/>
      <point x="239" y="401" type="line"/>
      <point x="286" y="401" type="line"/>
    </contour>
    <contour>
      <point x="136" y="372" type="line"/>
      <point x="89" y="372" type="line"/>
      <point x="89" y="0" type="line"/>
      <point x="56" y="0" type="line"/>
      <point x="56" y="372" type="line"/>
      <point x="12" y="372" type="line"/>
      <point x="12" y="401" type="line"/>
      <point x="56" y="401" type="line"/>
      <point x="56" y="643" type="line" smooth="yes"/>
      <point x="56" y="707"/>
      <point x="89" y="735"/>
      <point x="134" y="735" type="curve"/>
      <point x="134" y="702" type="line"/>
      <point x="104" y="702"/>
      <point x="89" y="680"/>
      <point x="89" y="639" type="curve" smooth="yes"/>
      <point x="89" y="401" type="line"/>
      <point x="136" y="401" type="line"/>
    </contour>
  </outline>
</glyph>
<glyph name="bullet" format="1">
  <advance width="270"/>
  <outline>
    <contour>
      <point x="213" y="379" type="curve" smooth="yes"/>
      <point x="213" y="336"/>
      <point x="178" y="301"/>
      <point x="135" y="301" type="curve" smooth="yes"/>
      <point x="92" y="301"/>
      <point x="57" y="336"/>
      <point x="57" y="379" type="curve" smooth="yes"/>
      <point x="57" y="422"/>
      <point x="92" y="457"/>
      <point x="135" y="457" type="curve" smooth="yes"/>
      <point x="178" y="457"/>
      <point x="213" y="422"/>
    </contour>
  </outline>
</glyph>
<glyph name="f_i" format="1">
  <advance width="287"/>
  <outline>
    <contour>
      <point x="235" y="501" type="line"/>
      <point x="202" y="501" type="line"/>
      <point x="202" y="581" type="line"/>
      <point x="235" y="581" type="line"/>
    </contour>
    <contour>
      <point x="136" y="372" type="line"/>
      <point x="89" y="372" type="line"/>
      <point x="89" y="0" type="line"/>
      <point x="56" y="0" type="line"/>
      <point x="56" y="372" type="line"/>
      <point x="12" y="372" type="line"/>
      <point x="12" y="401" type="line"/>
      <point x="56" y="401" type="line"/>
      <point x="56" y="643" type="line" smooth="yes"/>
      <point x="56" y="707"/>
      <point x="89" y="735"/>
      <point x="134" y="735" type="curve"/>
      <point x="134" y="702" type="line"/>
      <point x="104" y="702"/>
      <point x="89" y="680"/>
      <point x="89" y="639" type="curve" smooth="yes"/>
      <point x="89" y="401" type="line"/>
      <point x="136" y="401" type="line"/>
    </contour>
    <contour>
      <point x="235" y="0" type="line"/>
      <point x="202" y="0" type="line"/>
      <point x="202" y="401" type="line"/>
      <point x="235" y="401" type="line"/>
    </contour>
  </outline>
</glyph>
<glyph name="macron" format="1">
  <advance width="395"/>
  <outline>
    <contour>
      <point x="284" y="497" type="line"/>
      <point x="111" y="497" type="line"/>
      <point x="111" y="531" type="line"/>
      <point x="284" y="531" type="line"/>
    </contour>
  </outline>
</glyph>
<glyph name="onesuperior" format="1">
  <advance width="190"/>
  <outline>
    <contour>
      <point x="88" y="342" type="line"/>
      <point x="88" y="672" type="line"/>
      <point x="84" y="661"/>
      <point x="71" y="648"/>
      <point x="57" y="642" type="curve"/>
      <point x="57" y="671" type="line"/>
      <point x="74" y="678"/>
      <point x="88" y="703"/>
      <point x="92" y="730" type="curve"/>
      <point x="116" y="730" type="line"/>
      <point x="116" y="342" type="line"/>
    </contour>
  </outline>
</glyph>
<glyph name="threesuperior" format="1">
  <advance width="250"/>
  <outline>
    <contour>
      <point x="120" y="343" type="curve" smooth="yes"/>
      <point x="94" y="343"/>
      <point x="71" y="354"/>
      <point x="47" y="380" type="curve"/>
      <point x="64" y="403" type="line"/>
      <point x="86" y="380"/>
      <point x="102" y="370"/>
      <point x="122" y="370" type="curve" smooth="yes"/>
      <point x="152" y="370"/>
      <point x="176" y="396"/>
      <point x="176" y="445" type="curve" smooth="yes"/>
      <point x="176" y="489"/>
      <point x="158" y="537"/>
      <point x="102" y="537" type="curve" smooth="yes"/>
      <point x="94" y="537" type="line"/>
      <point x="94" y="564" type="line"/>
      <point x="104" y="564" type="line" smooth="yes"/>
      <point x="146" y="564"/>
      <point x="166" y="601"/>
      <point x="166" y="646" type="curve" smooth="yes"/>
      <point x="166" y="688"/>
      <point x="146" y="713"/>
      <point x="122" y="713" type="curve" smooth="yes"/>
      <point x="100" y="713"/>
      <point x="86" y="694"/>
      <point x="75" y="666" type="curve"/>
      <point x="51" y="678" type="line"/>
      <point x="65" y="716"/>
      <point x="91" y="740"/>
      <point x="123" y="740" type="curve" smooth="yes"/>
      <point x="159" y="740"/>
      <point x="195" y="707"/>
      <point x="195" y="647" type="curve" smooth="yes"/>
      <point x="195" y="602"/>
      <point x="177" y="565"/>
      <point x="144" y="551" type="curve"/>
      <point x="184" y="537"/>
      <point x="205" y="497"/>
      <point x="205" y="446" type="curve" smooth="yes"/>
      <point x="205" y="378"/>
      <point x="165" y="343"/>
    </contour>
  </outline>
</glyph>
